<?xml version="1.0" encoding="UTF-8" standalone="no"?>
<!-- Created with Inkscape (http://www.inkscape.org/) -->

<svg
   version="1.1"
   id="svg484"
   width="1107.2"
   height="387.14667"
   viewBox="0 0 1107.2 387.14667"
   xmlns="http://www.w3.org/2000/svg"
   xmlns:svg="http://www.w3.org/2000/svg">
  <defs
     id="defs488" />
  <g
     id="g492"
     transform="matrix(1.3333333,0,0,-1.3333333,0,387.14667)">
    <g
       id="g494"
       transform="scale(0.1)">
      <path
         d="m 3872.95,1959.74 h -308.36 v 308.36 h 308.36 z"
         style="fill:none;stroke:#181817;stroke-width:37.4912;stroke-linecap:round;stroke-linejoin:round;stroke-miterlimit:10;stroke-dasharray:none;stroke-opacity:1"
         id="path496" />
      <path
         d="M 2947.86,1959.74 H 2639.49 V 2268.1 Z"
         style="fill:none;stroke:#181817;stroke-width:37.4912;stroke-linecap:round;stroke-linejoin:round;stroke-miterlimit:10;stroke-dasharray:none;stroke-opacity:1"
         id="path498" />
      <path
         d="m 2331.13,2268.1 v -616.73 h 308.36 v 616.73 z"
         style="fill:none;stroke:#181817;stroke-width:37.4912;stroke-linecap:round;stroke-linejoin:round;stroke-miterlimit:10;stroke-dasharray:none;stroke-opacity:1"
         id="path500" />
      <path
         d="m 2947.86,2576.46 v -616.72 l 308.36,-308.37 v 925.09 z"
         style="fill:none;stroke:#181817;stroke-width:37.4912;stroke-linecap:round;stroke-linejoin:round;stroke-miterlimit:10;stroke-dasharray:none;stroke-opacity:1"
         id="path502" />
      <path
         d="m 3256.22,2884.82 v -925.08 h 308.37 v 925.08 z"
         style="fill:none;stroke:#181817;stroke-width:37.4912;stroke-linecap:round;stroke-linejoin:round;stroke-miterlimit:10;stroke-dasharray:none;stroke-opacity:1"
         id="path504" />
      <path
         d="M 3872.95,1959.74 H 8285.26"
         style="fill:none;stroke:#181817;stroke-width:37.4912;stroke-linecap:round;stroke-linejoin:round;stroke-miterlimit:10;stroke-dasharray:none;stroke-opacity:1"
         id="path506" />
      <path
         d="M 45.9688,2093 V 1633.3 H 0 V 2093 h 45.9688"
         style="fill:#181817;fill-opacity:1;fill-rule:nonzero;stroke:none"
         id="path508" />
      <path
         d="m 275.805,1958.73 c 91.937,0 141.558,-62.01 147.394,-138.63 l -40.859,-2.92 c -4.379,60.56 -41.594,104.34 -107.992,104.34 -66.403,0 -111.645,-51.8 -111.645,-129.88 0,-78.07 45.242,-129.88 111.645,-129.88 66.398,0 103.613,45.23 107.992,105.8 l 40.859,-4.38 c -5.836,-76.62 -55.457,-138.63 -147.394,-138.63 -94.125,0 -159.797,66.4 -159.797,167.09 0,100.69 65.672,167.09 159.797,167.09"
         style="fill:#181817;fill-opacity:1;fill-rule:nonzero;stroke:none"
         id="path510" />
      <path
         d="m 729.629,1812.07 c -1.453,58.38 -34.293,111.64 -101.426,111.64 -62.75,0 -103.613,-52.54 -110.906,-111.64 z m 46.699,-70.78 c -15.32,-72.24 -67.859,-116.74 -145.207,-116.74 -91.937,0 -160.523,64.94 -160.523,162.72 0,99.96 67.859,171.46 157.605,171.46 99.238,0 148.86,-71.5 148.86,-157.6 v -20.44 h -260.5 c 2.917,-70.04 51.804,-119.65 114.558,-119.65 58.383,0 94.133,29.18 107.27,85.37 l 37.937,-5.12"
         style="fill:#181817;fill-opacity:1;fill-rule:nonzero;stroke:none"
         id="path512" />
      <path
         d="M 887.949,2093 V 1633.3 H 843.441 V 2093 h 44.508"
         style="fill:#181817;fill-opacity:1;fill-rule:nonzero;stroke:none"
         id="path514" />
      <path
         d="m 1176.89,1796.75 -77.34,-16.79 c -57.65,-12.4 -93.4,-24.08 -93.4,-66.39 0,-29.92 19.7,-54.73 61.3,-54.73 62.02,0 109.44,47.43 109.44,118.21 z m 42.33,-110.19 c 0,-16.77 10.21,-24.8 26.27,-24.8 7.29,0 19.7,2.92 28.46,8.03 v -24.09 c -9.49,-10.93 -19.71,-18.96 -41.6,-18.96 -31.37,0 -53.99,26.99 -55.46,67.13 -16.77,-37.22 -63.47,-69.32 -117.47,-69.32 -59.11,0 -98.506,32.83 -98.506,87.56 0,59.82 52.536,83.91 131.346,99.96 l 84.63,17.52 v 16.05 c 0,48.15 -28.45,78.07 -78.07,78.07 -51.08,0 -79.53,-29.92 -90.48,-70.78 l -37.942,7.31 c 12.407,56.91 59.102,98.49 127.692,98.49 78.8,0 121.13,-41.58 121.13,-119.67 v -152.5"
         style="fill:#181817;fill-opacity:1;fill-rule:nonzero;stroke:none"
         id="path516" />
      <path
         d="m 1368.78,1633.3 h -44.51 v 316.68 h 44.51 v -58.38 c 15.33,38.67 59.11,67.13 106.54,67.13 81.72,0 116.02,-53.26 116.02,-129.14 V 1633.3 h -44.51 v 197.75 c 0,56.18 -29.19,92.66 -83.19,92.66 -50.35,0 -94.86,-39.39 -94.86,-100.69 V 1633.3"
         style="fill:#181817;fill-opacity:1;fill-rule:nonzero;stroke:none"
         id="path518" />
      <path
         d="m 1918.94,1802.58 c 0,75.9 -49.62,119.67 -112.38,119.67 -67.13,0 -105.8,-50.35 -105.8,-130.61 0,-80.26 38.67,-130.6 105.8,-130.6 62.76,0 112.38,43.77 112.38,119.65 z m -1.46,-99.96 c -13.87,-40.14 -55.46,-78.07 -116.75,-78.07 -94.13,0 -146.67,73.69 -146.67,167.09 0,93.4 52.54,167.09 146.67,167.09 61.29,0 102.88,-38.67 116.75,-78.8 V 2093 h 44.5 v -459.7 h -44.5 v 69.32"
         style="fill:#181817;fill-opacity:1;fill-rule:nonzero;stroke:none"
         id="path520" />
      <path
         d="M 45.9688,1338.38 V 917.34 H 310.113 V 878.668 H 0 v 459.712 h 45.9688"
         style="fill:#181817;fill-opacity:1;fill-rule:nonzero;stroke:none"
         id="path522" />
      <path
         d="M 423.926,1195.35 V 878.668 h -44.512 v 316.682 z m -45.973,143.03 h 47.43 v -59.11 h -47.43 v 59.11"
         style="fill:#181817;fill-opacity:1;fill-rule:nonzero;stroke:none"
         id="path524" />
      <path
         d="m 756.648,1057.44 c -1.457,58.38 -34.293,111.64 -101.421,111.64 -62.754,0 -103.618,-52.53 -110.911,-111.64 z m 46.704,-70.772 c -15.325,-72.238 -67.864,-116.75 -145.207,-116.75 -91.946,0 -160.528,64.941 -160.528,162.722 0,99.96 67.856,171.47 157.61,171.47 99.238,0 148.855,-71.51 148.855,-157.61 v -20.43 H 543.586 c 2.918,-70.05 51.805,-119.66 114.559,-119.66 58.375,0 94.125,29.18 107.261,85.371 l 37.946,-5.113"
         style="fill:#181817;fill-opacity:1;fill-rule:nonzero;stroke:none"
         id="path526" />
      <path
         d="m 1018.57,1204.11 c 91.95,0 141.56,-62.02 147.4,-138.64 l -40.86,-2.91 c -4.38,60.57 -41.59,104.34 -107.99,104.34 -66.405,0 -111.64,-51.8 -111.64,-129.89 0,-78.061 45.235,-129.881 111.64,-129.881 66.4,0 103.61,45.242 107.99,105.801 l 40.86,-4.37 c -5.84,-76.619 -55.45,-138.642 -147.4,-138.642 -94.121,0 -159.793,66.41 -159.793,167.092 0,100.71 65.672,167.1 159.793,167.1"
         style="fill:#181817;fill-opacity:1;fill-rule:nonzero;stroke:none"
         id="path528" />
      <path
         d="m 1284.15,878.668 h -44.51 v 459.712 h 44.51 v -201.4 c 15.32,38.67 59.11,67.13 106.53,67.13 81.73,0 116.02,-53.27 116.02,-129.15 V 878.668 h -44.51 v 197.762 c 0,56.17 -29.18,92.65 -83.18,92.65 -50.35,0 -94.86,-39.39 -94.86,-100.68 V 878.668"
         style="fill:#181817;fill-opacity:1;fill-rule:nonzero;stroke:none"
         id="path530" />
      <path
         d="m 1608.83,1162.52 h -48.89 v 21.89 l 18.98,3.66 c 29.19,5.83 35.02,19.68 41.59,50.34 l 9.48,45.24 h 22.62 v -88.3 h 91.94 v -32.83 h -91.94 V 948 c 0,-28.469 11.68,-42.328 40.87,-42.328 21.88,0 43.78,10.949 62.02,21.887 v -31.368 c -22.62,-17.523 -45.25,-26.273 -77.35,-26.273 -42.32,0 -69.32,21.152 -69.32,78.812 v 213.79"
         style="fill:#181817;fill-opacity:1;fill-rule:nonzero;stroke:none"
         id="path532" />
      <path
         d="m 2051.73,1057.44 c -1.46,58.38 -34.29,111.64 -101.42,111.64 -62.75,0 -103.62,-52.53 -110.92,-111.64 z m 46.7,-70.772 c -15.32,-72.238 -67.86,-116.75 -145.2,-116.75 -91.94,0 -160.53,64.941 -160.53,162.722 0,99.96 67.86,171.47 157.61,171.47 99.23,0 148.85,-71.51 148.85,-157.61 v -20.43 h -260.49 c 2.92,-70.05 51.8,-119.66 114.56,-119.66 58.37,0 94.12,29.18 107.26,85.371 l 37.94,-5.113"
         style="fill:#181817;fill-opacity:1;fill-rule:nonzero;stroke:none"
         id="path534" />
      <path
         d="m 2217.35,878.668 h -44.51 v 316.682 h 44.51 v -58.37 c 15.32,38.67 59.11,67.13 106.53,67.13 81.73,0 116.02,-53.27 116.02,-129.15 V 878.668 h -44.51 v 197.762 c 0,56.17 -29.19,92.65 -83.18,92.65 -50.35,0 -94.86,-39.39 -94.86,-100.68 V 878.668"
         style="fill:#181817;fill-opacity:1;fill-rule:nonzero;stroke:none"
         id="path536" />
      <path
         d="m 2544.22,990.309 c 6.57,-54.719 43.78,-85.368 104.34,-85.368 48.89,0 83.19,18.239 83.19,55.457 0,35.032 -24.82,45.972 -69.32,54.002 l -54.73,9.49 c -55.45,9.48 -89.75,35.02 -89.75,86.09 0,56.92 47.43,94.13 116.75,94.13 81.73,0 129.15,-38.67 134.26,-113.83 l -34.29,-2.92 c -8.03,56.92 -41.59,81.72 -99.97,81.72 -45.24,0 -75.16,-20.43 -75.16,-53.98 0,-30.66 18.24,-45.98 57.65,-52.54 l 58.37,-9.49 c 62.02,-10.22 98.51,-32.11 98.51,-88.281 0,-62.039 -55.46,-94.871 -124.78,-94.871 -76.61,0 -135.72,37.953 -140.82,116.023 l 35.75,4.368"
         style="fill:#181817;fill-opacity:1;fill-rule:nonzero;stroke:none"
         id="path538" />
      <path
         d="m 2859.41,1162.52 h -48.88 v 21.89 l 18.97,3.66 c 29.19,5.83 35.02,19.68 41.59,50.34 l 9.49,45.24 h 22.61 v -88.3 h 91.95 v -32.83 h -91.95 V 948 c 0,-28.469 11.68,-42.328 40.87,-42.328 21.89,0 43.78,10.949 62.02,21.887 v -31.368 c -22.62,-17.523 -45.24,-26.273 -77.34,-26.273 -42.32,0 -69.33,21.152 -69.33,78.812 v 213.79"
         style="fill:#181817;fill-opacity:1;fill-rule:nonzero;stroke:none"
         id="path540" />
      <path
         d="m 3302.31,1057.44 c -1.45,58.38 -34.29,111.64 -101.42,111.64 -62.75,0 -103.61,-52.53 -110.91,-111.64 z m 46.7,-70.772 c -15.32,-72.238 -67.86,-116.75 -145.2,-116.75 -91.94,0 -160.53,64.941 -160.53,162.722 0,99.96 67.86,171.47 157.61,171.47 99.24,0 148.86,-71.51 148.86,-157.61 v -20.43 h -260.5 c 2.92,-70.05 51.8,-119.66 114.56,-119.66 58.38,0 94.13,29.18 107.26,85.371 l 37.94,-5.113"
         style="fill:#181817;fill-opacity:1;fill-rule:nonzero;stroke:none"
         id="path542" />
      <path
         d="M 3467.93,1195.35 V 878.668 h -44.51 v 316.682 z m -45.97,143.03 h 47.43 v -59.11 h -47.43 v 59.11"
         style="fill:#181817;fill-opacity:1;fill-rule:nonzero;stroke:none"
         id="path544" />
      <path
         d="m 3607.29,878.668 h -44.51 v 316.682 h 44.51 v -58.37 c 15.33,38.67 59.11,67.13 106.54,67.13 81.73,0 116.01,-53.27 116.01,-129.15 V 878.668 h -44.51 v 197.762 c 0,56.17 -29.19,92.65 -83.17,92.65 -50.35,0 -94.87,-39.39 -94.87,-100.68 V 878.668"
         style="fill:#181817;fill-opacity:1;fill-rule:nonzero;stroke:none"
         id="path546" />
      <path
         d="M 322.52,205.039 V 583.75 h 43.781 V 124.039 H 329.813 L 43.7813,520.262 V 124.039 H 0 V 583.75 H 51.0742 L 322.52,205.039"
         style="fill:#181817;fill-opacity:1;fill-rule:nonzero;stroke:none"
         id="path548" />
      <path
         d="m 594.656,150.309 c 71.504,0 112.371,54.73 112.371,132.07 0,77.351 -40.867,132.07 -112.371,132.07 -70.777,0 -111.636,-54.719 -111.636,-132.07 0,-77.34 40.859,-132.07 111.636,-132.07 z m 0,-35.02 c -89.754,0 -158.34,68.602 -158.34,167.09 0,98.519 68.586,167.101 158.34,167.101 90.481,0 159.071,-68.582 159.071,-167.101 0,-98.488 -68.59,-167.09 -159.071,-167.09"
         style="fill:#181817;fill-opacity:1;fill-rule:nonzero;stroke:none"
         id="path550" />
      <path
         d="m 995.957,396.211 c -18.242,9.488 -29.187,12.41 -48.152,12.41 -45.973,0 -83.188,-47.43 -83.188,-110.902 v -173.68 h -44.512 v 316.68 h 44.512 v -66.391 c 12.403,36.481 44.508,75.152 91.207,75.152 19.703,0 33.567,-4.378 45.236,-14.601 l -5.103,-38.668"
         style="fill:#181817;fill-opacity:1;fill-rule:nonzero;stroke:none"
         id="path552" />
      <path
         d="m 1332.31,183.891 h 2.92 l 78.08,256.828 h 42.32 l -100.7,-316.68 h -42.32 l -73.69,252.473 H 1236 l -72.97,-252.473 h -42.32 l -101.42,316.68 h 44.5 l 79.54,-256.828 h 2.92 l 72.96,256.828 h 38.68 l 74.42,-256.828"
         style="fill:#181817;fill-opacity:1;fill-rule:nonzero;stroke:none"
         id="path554" />
      <path
         d="m 1704.43,287.5 -77.34,-16.789 c -57.65,-12.41 -93.4,-24.07 -93.4,-66.391 0,-29.922 19.7,-54.73 61.29,-54.73 62.02,0 109.45,47.422 109.45,118.199 z m 42.33,-110.18 c 0,-16.789 10.21,-24.82 26.26,-24.82 7.3,0 19.7,2.93 28.46,8.031 v -24.082 c -9.49,-10.937 -19.7,-18.969 -41.59,-18.969 -31.37,0 -54,26.989 -55.46,67.129 -16.78,-37.211 -63.48,-69.32 -117.48,-69.32 -59.1,0 -98.5,32.84 -98.5,87.563 0,59.839 52.54,83.918 131.34,99.957 l 84.64,17.519 v 16.063 c 0,48.148 -28.45,78.058 -78.07,78.058 -51.08,0 -79.53,-29.91 -90.48,-70.769 l -37.95,7.3 c 12.41,56.911 59.11,98.5 127.7,98.5 78.8,0 121.13,-41.589 121.13,-119.66 v -152.5"
         style="fill:#181817;fill-opacity:1;fill-rule:nonzero;stroke:none"
         id="path556" />
      <path
         d="m 1885.38,0 53.26,126.23 -134.26,314.489 h 46.7 L 1959.8,180.238 h 2.92 l 105.08,260.481 h 43.78 L 1929.16,0 h -43.78"
         style="fill:#181817;fill-opacity:1;fill-rule:nonzero;stroke:none"
         id="path558" />
      <path
         d="m 4763.06,1062.56 h 140.09 l -69.31,172.21 h -2.92 z m 123.32,275.82 187.52,-459.712 h -97.04 L 4930.89,992.5 h -195.56 l -44.51,-113.832 h -91.94 l 186.07,459.712 h 101.43"
         style="fill:#181817;fill-opacity:1;fill-rule:nonzero;stroke:none"
         id="path560" />
      <path
         d="m 5260.67,1209.22 c 95.59,0 148.13,-62.75 155.42,-140.1 l -73.69,-5.11 c -6.57,48.16 -33.56,78.08 -81.73,78.08 -48.15,0 -81.71,-35.76 -81.71,-102.89 0,-66.399 33.56,-102.149 81.71,-102.149 48.17,0 75.16,30.648 81.73,79.529 l 73.69,-6.56 c -7.29,-77.34 -59.83,-140.102 -155.42,-140.102 -99.23,0 -170.01,67.133 -170.01,169.282 0,102.17 70.78,170.02 170.01,170.02"
         style="fill:#181817;fill-opacity:1;fill-rule:nonzero;stroke:none"
         id="path562" />
      <path
         d="m 5481.02,1139.17 h -45.97 v 51.81 l 21.88,3.65 c 31.38,5.1 40.13,21.15 47.44,51.07 l 10.21,43.78 h 53.26 v -89.01 h 87.56 v -61.3 h -87.56 V 980.102 c 0,-27.731 12.4,-40.133 38.67,-40.133 17.52,0 35.77,6.57 54.73,15.32 v -57.641 c -23.35,-17.507 -49.62,-27.73 -89.02,-27.73 -49.61,0 -91.2,21.902 -91.2,90.48 v 178.772"
         style="fill:#181817;fill-opacity:1;fill-rule:nonzero;stroke:none"
         id="path564" />
      <path
         d="M 5798.41,1200.47 V 878.668 h -87.57 v 321.802 z m -89.03,137.91 h 89.75 V 1253 h -89.75 v 85.38"
         style="fill:#181817;fill-opacity:1;fill-rule:nonzero;stroke:none"
         id="path566" />
      <path
         d="M 5964.02,878.668 5837.06,1200.47 H 5929 l 85.38,-224.751 h 2.91 l 84.64,224.751 h 85.37 L 6060.34,878.668 h -96.32"
         style="fill:#181817;fill-opacity:1;fill-rule:nonzero;stroke:none"
         id="path568" />
      <path
         d="m 6443.41,1072.04 c -2.91,37.22 -25.54,72.97 -74.43,72.97 -48.15,0 -72.23,-32.84 -80.26,-72.97 z m 83.18,-88.29 c -16.78,-71.5 -72.23,-113.832 -154.69,-113.832 -99.23,0 -170.74,63.48 -170.74,164.902 0,101.43 72.24,174.4 168.56,174.4 105.07,0 159.06,-72.97 159.06,-160.53 v -31.37 h -241.52 c 2.93,-47.441 40.13,-80.992 87.56,-80.992 43.05,0 68.59,18.242 80.99,54.723 l 70.78,-7.301"
         style="fill:#181817;fill-opacity:1;fill-rule:nonzero;stroke:none"
         id="path570" />
      <path
         d="m 4782.76,454.59 c 95.59,0 148.13,-62.75 155.42,-140.102 l -73.7,-5.097 c -6.56,48.148 -33.56,78.07 -81.72,78.07 -48.16,0 -81.72,-35.762 -81.72,-102.891 0,-66.402 33.56,-102.148 81.72,-102.148 48.16,0 75.16,30.648 81.72,79.527 l 73.7,-6.558 c -7.29,-77.34 -59.83,-140.102 -155.42,-140.102 -99.23,0 -170.02,67.133 -170.02,169.281 0,102.168 70.79,170.02 170.02,170.02"
         style="fill:#181817;fill-opacity:1;fill-rule:nonzero;stroke:none"
         id="path572" />
      <path
         d="M 5079.72,445.84 V 124.039 h -87.56 V 445.84 Z m -89.03,137.91 h 89.75 v -85.379 h -89.75 v 85.379"
         style="fill:#181817;fill-opacity:1;fill-rule:nonzero;stroke:none"
         id="path574" />
      <path
         d="m 5164.35,384.539 h -45.97 v 51.813 l 21.88,3.648 c 31.38,5.102 40.14,21.148 47.44,51.07 l 10.21,43.782 h 53.27 V 445.84 h 87.56 v -61.301 h -87.56 v -159.07 c 0,-27.731 12.4,-40.129 38.67,-40.129 17.51,0 35.76,6.57 54.73,15.32 v -57.64 c -23.36,-17.508 -49.63,-27.731 -89.02,-27.731 -49.62,0 -91.21,21.902 -91.21,90.481 v 178.769"
         style="fill:#181817;fill-opacity:1;fill-rule:nonzero;stroke:none"
         id="path576" />
      <path
         d="M 5481.73,445.84 V 124.039 h -87.56 V 445.84 Z m -89.02,137.91 h 89.75 v -85.379 h -89.75 v 85.379"
         style="fill:#181817;fill-opacity:1;fill-rule:nonzero;stroke:none"
         id="path578" />
      <path
         d="m 5543.02,380.898 v 64.942 h 271.43 V 386 L 5643.7,188.988 h 175.13 v -64.949 h -280.2 v 59.852 l 167.83,197.007 h -163.44"
         style="fill:#181817;fill-opacity:1;fill-rule:nonzero;stroke:none"
         id="path580" />
      <path
         d="m 6090.99,317.41 c -2.91,37.219 -25.53,72.969 -74.43,72.969 -48.15,0 -72.23,-32.84 -80.26,-72.969 z m 83.18,-88.289 c -16.78,-71.5 -72.23,-113.832 -154.69,-113.832 -99.24,0 -170.74,63.481 -170.74,164.91 0,101.422 72.24,174.391 168.55,174.391 105.08,0 159.08,-72.969 159.08,-160.531 v -31.368 h -241.53 c 2.92,-47.441 40.13,-80.992 87.56,-80.992 43.06,0 68.59,18.242 81,54.723 l 70.77,-7.301"
         style="fill:#181817;fill-opacity:1;fill-rule:nonzero;stroke:none"
         id="path582" />
      <path
         d="m 6320.1,124.039 h -87.57 V 445.84 h 87.57 v -52.539 c 16.04,36.488 56.91,61.289 105.07,61.289 86.1,0 117.48,-58.379 117.48,-129.879 V 124.039 h -87.56 v 183.16 c 0,49.621 -19.71,78.071 -62.76,78.071 -44.51,0 -72.23,-35.02 -72.23,-89.02 V 124.039"
         style="fill:#181817;fill-opacity:1;fill-rule:nonzero;stroke:none"
         id="path584" />
      <path
         d="m 6665.21,233.5 c 5.11,-38.68 34.29,-58.371 78.8,-58.371 32.11,0 58.38,10.941 58.38,34.281 0,21.899 -14.59,31.391 -46.7,36.488 l -51.07,8.762 c -68.59,10.949 -106.54,36.481 -106.54,96.32 0,61.29 51.81,103.61 133.53,103.61 89.02,0 142.29,-40.141 148.13,-111.641 l -72.24,-2.91 c -5.84,36.473 -30.65,54.723 -76.62,54.723 -31.38,0 -51.81,-13.864 -51.81,-35.762 0,-17.512 11.68,-27.73 35.03,-31.371 l 61.29,-10.219 c 67.86,-10.941 108,-39.398 108,-99.969 0,-65.66 -56.92,-102.152 -140.1,-102.152 -83.91,0 -148.12,36.492 -153.96,115.301 l 75.88,2.91"
         style="fill:#181817;fill-opacity:1;fill-rule:nonzero;stroke:none"
         id="path586" />
      <path
         d="m 7039.51,407.891 v 32.828 h 48.89 v 44.519 c 0,62.75 35.02,107.262 99.23,107.262 53.27,0 80.27,-23.352 94.86,-70.051 l -32.83,-12.41 c -8.03,28.461 -29.19,49.633 -62.03,49.633 -37.21,0 -54.72,-25.551 -54.72,-68.602 v -50.351 h 91.2 v -32.828 h -91.2 V 124.039 h -44.51 v 283.852 h -48.89"
         style="fill:#181817;fill-opacity:1;fill-rule:nonzero;stroke:none"
         id="path588" />
      <path
         d="m 7490.44,440.719 h 44.51 v -316.68 h -44.51 v 58.383 c -15.33,-38.672 -57.65,-67.133 -105.08,-67.133 -81.72,0 -113.83,53.27 -113.83,129.152 v 196.278 h 44.51 V 242.988 c 0,-56.187 27,-92.679 81,-92.679 50.34,0 93.4,39.41 93.4,100.711 v 189.699"
         style="fill:#181817;fill-opacity:1;fill-rule:nonzero;stroke:none"
         id="path590" />
      <path
         d="m 7667,124.039 h -44.51 v 316.68 H 7667 v -58.367 c 15.32,38.679 59.1,67.128 106.54,67.128 81.71,0 116.01,-53.269 116.01,-129.152 V 124.039 h -44.51 v 197.762 c 0,56.168 -29.19,92.648 -83.18,92.648 -50.35,0 -94.86,-39.39 -94.86,-100.679 V 124.039"
         style="fill:#181817;fill-opacity:1;fill-rule:nonzero;stroke:none"
         id="path592" />
      <path
         d="m 8217.15,293.34 c 0,75.879 -49.62,119.66 -112.37,119.66 -67.13,0 -105.81,-50.34 -105.81,-130.621 0,-80.25 38.68,-130.598 105.81,-130.598 62.75,0 112.37,43.778 112.37,119.668 z m -1.46,-99.969 c -13.86,-40.133 -55.46,-78.082 -116.74,-78.082 -94.14,0 -146.67,73.699 -146.67,167.09 0,93.402 52.53,167.101 146.67,167.101 61.28,0 102.88,-38.671 116.74,-78.8 v 213.07 h 44.52 V 124.039 h -44.52 v 69.332"
         style="fill:#181817;fill-opacity:1;fill-rule:nonzero;stroke:none"
         id="path594" />
    </g>
  </g>
</svg>
