<svg xmlns="http://www.w3.org/2000/svg" width="100.089" height="113.094" viewBox="0 0 100.089 113.094">
  <path id="Kaasav_eelarve_ikoon_kastis" data-name="Kaasav eelarve ikoon kastis" d="M10526.953-5561.862v-11.105a1,1,0,0,1,1-1,1,1,0,0,1,1,1v11.105a1,1,0,0,1-1,1A1,1,0,0,1,10526.953-5561.862Zm-23.527-17.418a1,1,0,0,1-1-1v-72.711a1,1,0,0,1,1-1h35.241a1,1,0,0,1,.68.266l15.61,14.44a1,1,0,0,1,.321.735v58.271a1,1,0,0,1-1,1Zm1-2h48.853v-55.553h-15.635a1,1,0,0,1-1-1v-14.156h-32.217Zm34.216-57.552h13.858l-13.858-12.82Zm-59.137,48.683a1,1,0,0,1,.366-1.368l9.621-5.554a1,1,0,0,1,1.365.366,1,1,0,0,1-.367,1.365l-9.618,5.554a.97.97,0,0,1-.5.136A1,1,0,0,1,10479.506-5590.152Zm97.378.363-9.619-5.554a1,1,0,0,1-.366-1.365,1,1,0,0,1,1.364-.369l9.619,5.554a1,1,0,0,1,.366,1.367.994.994,0,0,1-.865.5A1,1,0,0,1,10576.884-5589.789Zm-61.854-9.8a1,1,0,0,1-1-1,1,1,0,0,1,1-1h27.646a1,1,0,0,1,1,1,1,1,0,0,1-1,1Zm0-13.017a1,1,0,0,1-1-1,1,1,0,0,1,1-1h27.646a1,1,0,0,1,1,1,1,1,0,0,1-1,1Zm0-13.017a1,1,0,0,1-1-1,1,1,0,0,1,1-1h27.646a1,1,0,0,1,1,1,1,1,0,0,1-1,1Zm51.868-7.383a1,1,0,0,1,.366-1.365l9.619-5.554a1,1,0,0,1,1.364.367.994.994,0,0,1-.366,1.364l-9.619,5.554a.967.967,0,0,1-.5.135A1,1,0,0,1,10566.9-5633.009Zm-77.405.366-9.621-5.554a1,1,0,0,1-.366-1.364,1,1,0,0,1,1.367-.367l9.618,5.554a1,1,0,0,1,.367,1.365,1,1,0,0,1-.866.5A.977.977,0,0,1,10489.493-5632.643Zm37.46-28.205v-11.108a1,1,0,0,1,1-1,1,1,0,0,1,1,1v11.108a1,1,0,0,1-1,1A1,1,0,0,1,10526.953-5660.848Z" transform="translate(-10478.799 5673.455)" fill="#fff" stroke="rgba(0,0,0,0)" stroke-width="1"/>
</svg>
