<?xml version="1.0" encoding="UTF-8" standalone="no"?>
<!-- Created with Inkscape (http://www.inkscape.org/) -->

<svg
   version="1.1"
   id="svg1"
   width="1106.129"
   height="266.69852"
   viewBox="0 0 1106.1291 266.69852"
   xmlns="http://www.w3.org/2000/svg"
   xmlns:svg="http://www.w3.org/2000/svg">
  <defs
     id="defs1" />
  <g
     id="g1"
     transform="translate(-38.127066,-8.285344)">
    <g
       id="group-R5">
      <path
         id="path2"
         d="M 285.953,2072.86 H 3230.69 V 72.6211 H 285.953 V 2072.86"
         style="fill:#ffffff;fill-opacity:1;fill-rule:nonzero;stroke:none"
         transform="matrix(0.13333333,0,0,-0.13333333,0,284.66667)" />
      <path
         id="path3"
         d="M 342.582,2018.02 H 3174.07 V 130.352 H 342.582 V 2018.02"
         style="fill:#264ca4;fill-opacity:1;fill-rule:nonzero;stroke:none"
         transform="matrix(0.13333333,0,0,-0.13333333,0,284.66667)" />
      <path
         id="path4"
         d="m 1697.99,1606.73 59.75,43.6 59.75,-43.6 -22.74,70.51 60.68,43.6 h -74.8 l -22.89,71.37 -22.9,-71.44 -74.76,0.07 60.65,-43.6 -22.74,-70.51"
         style="fill:#ffffff;fill-opacity:1;fill-rule:nonzero;stroke:none"
         transform="matrix(0.13333333,0,0,-0.13333333,0,284.66667)" />
      <path
         id="path5"
         d="m 1388.79,1523.66 59.75,43.6 59.72,-43.6 -22.71,70.51 60.66,43.6 h -74.81 l -22.9,71.45 -22.89,-71.52 -74.76,0.07 60.65,-43.6 -22.71,-70.51"
         style="fill:#ffffff;fill-opacity:1;fill-rule:nonzero;stroke:none"
         transform="matrix(0.13333333,0,0,-0.13333333,0,284.66667)" />
      <path
         id="path6"
         d="m 1222.31,1482.48 -22.9,-71.53 -74.76,0.07 60.65,-43.6 -22.75,-70.51 59.76,43.6 59.75,-43.6 -22.74,70.51 60.65,43.6 h -74.77 l -22.89,71.46"
         style="fill:#ffffff;fill-opacity:1;fill-rule:nonzero;stroke:none"
         transform="matrix(0.13333333,0,0,-0.13333333,0,284.66667)" />
      <path
         id="path7"
         d="m 1139.31,1031.71 59.71,-43.601 -22.7,70.511 60.65,43.6 h -74.77 l -22.89,71.45 -22.89,-71.6 -74.8,0.15 60.68,-43.6 -22.73,-70.511 59.74,43.601"
         style="fill:#ffffff;fill-opacity:1;fill-rule:nonzero;stroke:none"
         transform="matrix(0.13333333,0,0,-0.13333333,0,284.66667)" />
      <path
         id="path8"
         d="m 1245.2,792.48 -22.89,71.45 -22.9,-71.52 -74.76,0.07 60.65,-43.601 -22.75,-70.508 59.76,43.68 59.75,-43.68 -22.74,70.508 60.65,43.601 h -74.77"
         style="fill:#ffffff;fill-opacity:1;fill-rule:nonzero;stroke:none"
         transform="matrix(0.13333333,0,0,-0.13333333,0,284.66667)" />
      <path
         id="path9"
         d="m 1471.87,565.809 -22.9,71.382 -22.85,-71.453 -74.81,0.071 60.66,-43.59 -22.71,-70.52 59.75,43.61 59.72,-43.61 -22.71,70.52 60.65,43.59 h -74.8"
         style="fill:#ffffff;fill-opacity:1;fill-rule:nonzero;stroke:none"
         transform="matrix(0.13333333,0,0,-0.13333333,0,284.66667)" />
      <path
         id="path10"
         d="m 1780.67,483.691 -22.89,71.438 -22.86,-71.52 -74.8,0.082 60.65,-43.613 -22.7,-70.508 59.75,43.602 59.7,-43.602 -22.73,70.508 60.68,43.613 h -74.8"
         style="fill:#ffffff;fill-opacity:1;fill-rule:nonzero;stroke:none"
         transform="matrix(0.13333333,0,0,-0.13333333,0,284.66667)" />
      <path
         id="path11"
         d="m 2089.48,565.809 -22.85,71.382 -22.94,-71.453 -74.72,0.071 60.61,-43.59 -22.71,-70.52 59.76,43.61 59.74,-43.61 -22.78,70.52 60.68,43.59 h -74.79"
         style="fill:#ffffff;fill-opacity:1;fill-rule:nonzero;stroke:none"
         transform="matrix(0.13333333,0,0,-0.13333333,0,284.66667)" />
      <path
         id="path12"
         d="m 2316.23,792.48 -22.94,71.45 -22.93,-71.52 -74.73,0.07 60.68,-43.601 -22.77,-70.508 59.75,43.68 59.75,-43.68 -22.78,70.508 60.68,43.601 h -74.71"
         style="fill:#ffffff;fill-opacity:1;fill-rule:nonzero;stroke:none"
         transform="matrix(0.13333333,0,0,-0.13333333,0,284.66667)" />
      <path
         id="path13"
         d="m 2473.08,1103.08 h -74.8 l -22.93,71.45 -22.85,-71.53 -74.81,0.08 60.68,-43.6 -22.69,-70.511 59.67,43.681 59.74,-43.681 -22.69,70.511 60.68,43.6"
         style="fill:#ffffff;fill-opacity:1;fill-rule:nonzero;stroke:none"
         transform="matrix(0.13333333,0,0,-0.13333333,0,284.66667)" />
      <path
         id="path14"
         d="m 2233.54,1297.85 59.75,43.6 59.75,-43.6 -22.78,70.51 60.68,43.52 h -74.71 l -22.94,71.45 -22.93,-71.53 -74.73,0.08 60.68,-43.52 -22.77,-70.51"
         style="fill:#ffffff;fill-opacity:1;fill-rule:nonzero;stroke:none"
         transform="matrix(0.13333333,0,0,-0.13333333,0,284.66667)" />
      <path
         id="path15"
         d="m 2067.48,1709.14 -22.86,-71.52 -74.8,0.15 60.61,-43.68 -22.7,-70.51 59.82,43.68 59.68,-43.68 -22.7,70.51 60.68,43.68 h -74.87 l -22.86,71.37"
         style="fill:#ffffff;fill-opacity:1;fill-rule:nonzero;stroke:none"
         transform="matrix(0.13333333,0,0,-0.13333333,0,284.66667)" />
      <text
         id="text15"
         xml:space="preserve"
         transform="matrix(1.3333333,0,0,1.3333333,469.92267,110.38133)"><tspan
           style="font-variant:normal;font-weight:700;font-size:65px;font-family:Arial;writing-mode:lr-tb;fill:#264ca4;fill-opacity:1;fill-rule:nonzero;stroke:none"
           x="0 46.941402 83.090828 119.2402 155.39059 180.68552 216.83591 256.54105 292.69043 328.83984 350.48633 386.63574 426.33984 466.04492 505.75006"
           y="0"
           id="tspan15">Kaasrahastanud </tspan><tspan
           style="font-variant:normal;font-weight:700;font-size:65px;font-family:Arial;writing-mode:lr-tb;fill:#264ca4;fill-opacity:1;fill-rule:nonzero;stroke:none"
           x="0 43.354488 83.058601 108.35448 148.05859 187.76373 227.46883 263.61826 281.6778 321.3819 339.4415 357.50009"
           y="78"
           id="tspan16">Euroopa Liit</tspan></text>
    </g>
  </g>
</svg>
