<svg xmlns="http://www.w3.org/2000/svg" width="100.674" height="78.056" viewBox="0 0 100.674 78.056">
  <path id="ÕE_valimine_ümbrik_kastis" data-name="ÕE valimine ümbrik kastis" d="M10998.45-3979.128l-12.481-50.062a4,4,0,0,1,2.913-4.847l80.19-19.995a4,4,0,0,1,4.85,2.913l12.482,50.062a4,4,0,0,1-2.913,4.847l-80.193,19.995a4,4,0,0,1-.968.119A4,4,0,0,1,10998.45-3979.128Zm71.108-72.964-80.2,19.995a2,2,0,0,0-1.455,2.427l12.481,50.059a2,2,0,0,0,2.424,1.458l80.193-19.995a2,2,0,0,0,1.455-2.424l-12.479-50.062a2,2,0,0,0-1.94-1.518A2,2,0,0,0,11069.559-4052.093Zm-66.313,70.062a1,1,0,0,1-.343-1.372l16.555-27.55-27.551-16.555a1,1,0,0,1-.342-1.372,1,1,0,0,1,1.371-.342l43.732,26.278a4.048,4.048,0,0,0,5.551-1.383l26.277-43.735a1,1,0,0,1,1.372-.342,1,1,0,0,1,.345,1.372l-16.555,27.553,27.551,16.555a1,1,0,0,1,.343,1.372,1,1,0,0,1-.615.454.988.988,0,0,1-.757-.111l-27.552-16.555-8.692,14.468a6.046,6.046,0,0,1-3.721,2.749,6.033,6.033,0,0,1-4.577-.682l-14.466-8.692-16.556,27.552a.992.992,0,0,1-.614.453,1.019,1.019,0,0,1-.244.03A.978.978,0,0,1,11003.245-3982.03Z" transform="translate(-10985.85 4054.151)" fill="#fff"/>
</svg>
