<svg width="22" height="16" viewBox="0 0 22 16" fill="none" xmlns="http://www.w3.org/2000/svg">
<g clip-path="url(#clip0_1046_14765)">
<path d="M21.6206 16H0.379327C0.169855 16 0 15.8115 0 15.5789V0.421071C0 0.188547 0.169855 0 0.379327 0H21.6206C21.8301 0 22 0.188547 22 0.421071V15.5789C21.9999 15.8115 21.8301 16 21.6206 16Z" fill="#41479B"/>
<path d="M21.9999 0.421071C21.9999 0.188547 21.8301 0 21.6206 0H19.9235L12.8965 5.11062V0H9.10337V5.11062L2.07633 0H0.379327C0.169855 0 0 0.188547 0 0.421071V1.51005L6.02888 5.89471H0V10.1052H6.02888L0 14.49V15.5789C0 15.8115 0.169855 16 0.379327 16H2.07637L9.10345 10.8894V16H12.8965V10.8894L19.9236 16H21.6207C21.8301 16 22 15.8115 22 15.5789V14.49L15.9711 10.1053H21.9999V5.89476H15.971L21.9999 1.51005V0.421071Z" fill="#F5F5F5"/>
<path d="M21.9999 6.73686H12.1379V0H9.86202V6.73686H0V9.26314H9.86202V16H12.1379V9.26314H21.9999V6.73686Z" fill="#FF4B55"/>
<path d="M7.68914 10.1052L0.0107422 15.638C0.0375976 15.8413 0.188632 16 0.379284 16H0.901739L9.08253 10.1053H7.68914V10.1052V10.1052Z" fill="#FF4B55"/>
<path d="M14.8837 10.1052H13.4904L21.6592 15.9913C21.8496 15.9687 21.9999 15.7962 21.9999 15.5789V15.2327L14.8837 10.1052Z" fill="#FF4B55"/>
<path d="M0 0.885829L6.95142 5.89471H8.3448L0.220987 0.0410156C0.0912223 0.107935 0 0.251742 0 0.421019V0.885829Z" fill="#FF4B55"/>
<path d="M14.2899 5.89471L21.9867 0.348619C21.9547 0.152011 21.8069 0 21.6206 0H21.0771L12.8965 5.89471H14.2899Z" fill="#FF4B55"/>
</g>
<defs>
<clipPath id="clip0_1046_14765">
<rect width="22" height="16" rx="2" fill="white"/>
</clipPath>
</defs>
</svg>
