<?xml version="1.0" encoding="UTF-8" standalone="no"?>
<svg
   width="195.93999"
   height="45.641602"
   viewBox="0 0 195.93999 45.641602"
   fill="none"
   version="1.1"
   id="svg94"
   xmlns="http://www.w3.org/2000/svg"
   xmlns:svg="http://www.w3.org/2000/svg">
  <defs
     id="defs98" />
  <path
     d="m 0,19.5613 c 0,14.4043 11.878,26.0803 26.5285,26.0803 14.6505,0 26.5299,-11.676 26.5299,-26.0803 z"
     fill="#0e2b8f"
     id="path2" />
  <path
     d="m 26.5299,13.0408 c 0,-3.4586 -1.3976,-6.7756 -3.8852,-9.2212 C 20.157,1.3739 16.783,0 13.2649,0 9.7468,0 6.3728,1.3739 3.8852,3.8196 1.3975,6.2652 0,9.5822 0,13.0408 Z"
     fill="#ffb135"
     id="path4" />
  <path
     d="m 66.0341,8.3243 c 0,-1.8396 1.399,-3.426 3.639,-3.426 1.885,0 3.433,1.1158 3.524,3.1976 0.012,0.3673 -0.245,0.5324 -0.633,0.5324 h -4.618 c -0.027,0.7747 0.761,1.5232 2.039,1.5232 0.517,-0.0017 1.024,-0.1375 1.471,-0.3935 0.348,-0.1913 0.632,-0.1651 0.877,0.1266 l 0.14,0.1774 c 0.259,0.3041 0.232,0.6467 -0.115,0.9013 -0.733,0.5009 -1.61,0.7588 -2.503,0.7361 -2.375,0 -3.821,-1.5108 -3.821,-3.3751 z m 5.292,-0.787 c -0.181,-0.8751 -0.942,-1.1544 -1.627,-1.1544 -0.684,0 -1.483,0.304 -1.703,1.1544 z"
     fill="#0e2b8f"
     id="path6" />
  <path
     d="M 74.0881,10.9509 V 5.6468 c 0,-0.3936 0.219,-0.6096 0.62,-0.6096 h 0.709 c 0.401,0 0.619,0.216 0.619,0.6096 v 0.8117 c 0.22,-1.1929 1.149,-1.5602 1.717,-1.5602 l 0.22,0.0123 c 0.309,0.0262 0.374,0.267 0.374,0.5201 v 0.8889 c 0,0.355 -0.181,0.5077 -0.452,0.4692 -0.107,-0.014 -0.215,-0.0222 -0.322,-0.0248 -0.776,0 -1.485,0.4939 -1.485,2.1313 v 2.0556 c 0,0.3921 -0.219,0.6081 -0.619,0.6081 h -0.761 c -0.401,0 -0.62,-0.216 -0.62,-0.6081 z"
     fill="#0e2b8f"
     id="path8" />
  <path
     d="m 78.5551,8.2981 c 0,-1.9152 1.329,-3.3998 3.188,-3.3998 0.877,0 1.651,0.3302 2.129,1.0649 V 5.6468 c 0,-0.3936 0.219,-0.6096 0.62,-0.6096 h 0.761 c 0.4,0 0.62,0.216 0.62,0.6096 v 5.3041 c 0,0.3921 -0.22,0.6081 -0.62,0.6081 h -0.761 c -0.401,0 -0.62,-0.216 -0.62,-0.6081 v -0.3055 c -0.478,0.7237 -1.252,1.054 -2.129,1.054 -1.859,0 -3.188,-1.4723 -3.188,-3.4013 z m 5.343,0 c 0,-1.0402 -0.672,-1.8272 -1.69,-1.8272 -1.046,0 -1.652,0.8256 -1.652,1.8272 0,1.0017 0.606,1.8272 1.652,1.8272 1.018,0 1.69,-0.7884 1.69,-1.8272 z"
     fill="#0e2b8f"
     id="path10" />
  <path
     d="m 86.9191,10.3921 c -0.195,-0.3811 0.012,-0.6604 0.42,-0.7608 l 0.4,-0.0895 c 0.349,-0.0894 0.502,0.0757 0.774,0.3426 0.129,0.1292 0.284,0.23 0.455,0.2958 0.171,0.0657 0.355,0.0948 0.539,0.0854 0.504,0 0.852,-0.2284 0.852,-0.571 0,-0.2752 -0.195,-0.4197 -0.62,-0.571 l -0.813,-0.2752 c -0.685,-0.216 -1.871,-0.7114 -1.871,-1.8905 0,-1.2177 1.033,-2.0556 2.464,-2.0556 0.853,0 1.627,0.2669 2.116,0.9893 0.259,0.3687 0.066,0.6975 -0.361,0.7994 l -0.361,0.0894 c -0.336,0.0881 -0.516,-0.0261 -0.749,-0.2422 -0.085,-0.0806 -0.186,-0.1435 -0.297,-0.1849 -0.111,-0.0413 -0.229,-0.0603 -0.348,-0.0558 -0.42,0 -0.67,0.2545 -0.67,0.5586 0,0.2752 0.257,0.4127 0.606,0.5324 l 0.816,0.2972 c 1.369,0.4431 1.858,1.1668 1.884,1.9662 0,1.3759 -1.239,2.0432 -2.671,2.0432 -1.173,0.0042 -2.127,-0.432 -2.565,-1.303 z"
     fill="#0e2b8f"
     id="path12" />
  <path
     d="M 93.0881,10.9508 V 5.6467 c 0,-0.3936 0.22,-0.6096 0.62,-0.6096 h 0.761 c 0.401,0 0.619,0.216 0.619,0.6096 v 0.432 c 0.259,-0.7499 0.968,-1.1805 1.794,-1.1805 0.399,-0.0145 0.793,0.0853 1.135,0.287 0.342,0.2018 0.617,0.4969 0.791,0.8495 0.62,-0.9632 1.381,-1.1297 2.13,-1.1297 1.716,0 2.438,1.3828 2.438,2.9183 v 3.1344 c 0,0.3921 -0.232,0.6081 -0.631,0.6081 h -0.749 c -0.4,0 -0.62,-0.216 -0.62,-0.6081 V 7.9045 c 0,-0.9136 -0.361,-1.4075 -0.954,-1.4075 -0.56,0 -1.162,0.4444 -1.189,1.6359 v 2.8179 c 0,0.3921 -0.218,0.6081 -0.618,0.6081 h -0.762 c -0.4,0 -0.62,-0.216 -0.62,-0.6081 V 7.9045 c 0,-0.9136 -0.348,-1.4075 -0.941,-1.4075 -0.594,0 -1.201,0.4815 -1.201,1.6992 v 2.7518 c 0,0.3922 -0.219,0.6082 -0.619,0.6082 h -0.761 c -0.403,0.0027 -0.623,-0.2133 -0.623,-0.6054 z"
     fill="#0e2b8f"
     id="path14" />
  <path
     d="M 104.5471,8.7934 V 5.6467 c 0,-0.3935 0.219,-0.6095 0.62,-0.6095 h 0.761 c 0.399,0 0.619,0.216 0.619,0.6095 v 3.0022 c 0,0.9136 0.361,1.4599 1.045,1.4599 0.685,0 1.4,-0.5325 1.4,-1.7516 V 5.6467 c 0,-0.3935 0.219,-0.6095 0.62,-0.6095 h 0.748 c 0.399,0 0.633,0.216 0.633,0.6095 v 5.3041 c 0,0.3922 -0.234,0.6082 -0.633,0.6082 h -0.748 c -0.401,0 -0.62,-0.216 -0.62,-0.6082 v -0.4196 c -0.336,0.7361 -1.032,1.1681 -2.027,1.1681 -1.769,0 -2.418,-1.3704 -2.418,-2.9059 z"
     fill="#0e2b8f"
     id="path16" />
  <path
     d="m 112.0361,10.3921 c -0.193,-0.3811 0.013,-0.6604 0.42,-0.7608 l 0.401,-0.0895 c 0.348,-0.0894 0.503,0.0757 0.774,0.3426 0.128,0.1292 0.283,0.23 0.455,0.2958 0.171,0.0657 0.355,0.0948 0.538,0.0854 0.504,0 0.853,-0.2284 0.853,-0.571 0,-0.2752 -0.194,-0.4197 -0.62,-0.571 l -0.814,-0.2752 c -0.683,-0.216 -1.871,-0.7114 -1.871,-1.8905 0,-1.2177 1.033,-2.0556 2.466,-2.0556 0.851,0 1.626,0.2669 2.116,0.9893 0.259,0.3687 0.065,0.6975 -0.361,0.7994 l -0.361,0.0894 c -0.336,0.0881 -0.516,-0.0261 -0.749,-0.2422 -0.085,-0.0806 -0.186,-0.1435 -0.297,-0.1849 -0.111,-0.0413 -0.229,-0.0603 -0.348,-0.0558 -0.42,0 -0.672,0.2545 -0.672,0.5586 0,0.2752 0.259,0.4127 0.608,0.5324 l 0.826,0.3055 c 1.367,0.443 1.858,1.1668 1.883,1.9662 0,1.3759 -1.238,2.0432 -2.671,2.0432 -1.182,-0.0041 -2.136,-0.4403 -2.576,-1.3113 z"
     fill="#0e2b8f"
     id="path18" />
  <path
     d="M 120.1961,10.3662 V 8.4633 h -2 c -0.045,0.0044 -0.09,-0.0012 -0.132,-0.0165 -0.042,-0.0152 -0.08,-0.0396 -0.112,-0.0714 -0.031,-0.0318 -0.054,-0.0701 -0.068,-0.1121 -0.014,-0.042 -0.018,-0.0865 -0.012,-0.1302 V 7.1053 c -0.004,-0.0428 10e-4,-0.0861 0.015,-0.1266 0.015,-0.0406 0.039,-0.0775 0.07,-0.1078 0.031,-0.0304 0.068,-0.0535 0.11,-0.0677 0.041,-0.0142 0.085,-0.0191 0.129,-0.0143 h 2 V 4.886 c -0.007,-0.0436 -0.003,-0.088 0.011,-0.1298 0.014,-0.0419 0.037,-0.0801 0.068,-0.1119 0.031,-0.0317 0.069,-0.0562 0.111,-0.0715 0.042,-0.0154 0.087,-0.0212 0.131,-0.0171 h 1.137 c 0.044,-0.0041 0.089,0.0017 0.131,0.0171 0.042,0.0153 0.08,0.0398 0.111,0.0715 0.031,0.0318 0.054,0.07 0.068,0.1119 0.014,0.0418 0.018,0.0862 0.012,0.1298 v 1.9029 h 1.989 c 0.044,-0.005 0.088,-4e-4 0.13,0.0136 0.042,0.0139 0.081,0.0368 0.113,0.0671 0.032,0.0302 0.056,0.067 0.072,0.1078 0.016,0.0407 0.022,0.0844 0.019,0.1279 v 1.0278 c 0.005,0.0444 0,0.0893 -0.016,0.1315 -0.015,0.0421 -0.039,0.0804 -0.071,0.112 -0.032,0.0317 -0.071,0.0559 -0.114,0.0709 -0.043,0.015 -0.088,0.0204 -0.133,0.0158 h -1.989 v 1.9029 c 0.005,0.0428 0,0.0861 -0.015,0.1268 -0.014,0.0406 -0.038,0.0775 -0.069,0.108 -0.031,0.0305 -0.068,0.0538 -0.109,0.0682 -0.042,0.0144 -0.086,0.0195 -0.129,0.0149 h -1.137 c -0.043,0.0046 -0.087,-5e-4 -0.128,-0.0149 -0.042,-0.0144 -0.079,-0.0377 -0.11,-0.0682 -0.031,-0.0305 -0.054,-0.0674 -0.069,-0.108 -0.014,-0.0407 -0.019,-0.084 -0.014,-0.1268 z"
     fill="#ffb135"
     id="path20" />
  <path
     d="m 125.4751,12.8151 c -0.003,-0.0677 0.002,-0.1355 0.014,-0.2023 0.013,-0.0726 0.053,-0.1379 0.112,-0.1827 0.06,-0.0449 0.135,-0.0661 0.209,-0.0594 h 0.917 c 0.181,0 0.27,0.1018 0.27,0.2284 v 0.077 c 0,0.2408 0.22,0.4128 0.543,0.4128 0.401,0 0.619,-0.2752 0.619,-0.7485 V 5.6466 c 0,-0.3935 0.22,-0.6095 0.62,-0.6095 h 0.749 c 0.4,0 0.62,0.216 0.62,0.6095 v 6.442 c 0,1.9923 -1.342,2.4615 -2.466,2.4615 -1.162,0.0028 -2.207,-0.5352 -2.207,-1.735 z m 2.503,-9.5667 c 0,-0.5833 0.42,-1.0278 1.201,-1.0278 0.781,0 1.201,0.4445 1.201,1.0278 0,0.5834 -0.466,1.0155 -1.201,1.0155 -0.735,0 -1.201,-0.4445 -1.201,-1.0155 z"
     fill="#0e2b8f"
     id="path22" />
  <path
     d="m 131.1281,8.2981 c 0,-1.9152 1.328,-3.3998 3.187,-3.3998 0.877,0 1.653,0.3302 2.13,1.0649 V 5.6468 c 0,-0.3936 0.22,-0.6096 0.62,-0.6096 h 0.761 c 0.401,0 0.619,0.216 0.619,0.6096 v 5.3041 c 0,0.3921 -0.218,0.6081 -0.619,0.6081 h -0.761 c -0.4,0 -0.62,-0.216 -0.62,-0.6081 v -0.3055 c -0.477,0.7237 -1.26,1.054 -2.13,1.054 -1.859,0 -3.187,-1.4723 -3.187,-3.4013 z m 5.342,0 c 0,-1.0402 -0.67,-1.8272 -1.691,-1.8272 -1.045,0 -1.651,0.8256 -1.651,1.8272 0,1.0017 0.606,1.8272 1.651,1.8272 1.021,0 1.691,-0.7884 1.691,-1.8272 z"
     fill="#0e2b8f"
     id="path24" />
  <path
     d="m 66.0341,22.8744 c 0,-1.8395 1.399,-3.426 3.639,-3.426 1.885,0 3.433,1.1173 3.524,3.1976 0.012,0.3688 -0.245,0.5325 -0.633,0.5325 h -4.618 c -0.027,0.7746 0.761,1.5231 2.039,1.5231 0.517,-0.0017 1.024,-0.1374 1.471,-0.3935 0.348,-0.1899 0.632,-0.1651 0.877,0.1266 l 0.14,0.1775 c 0.259,0.3055 0.232,0.648 -0.115,0.9012 -0.733,0.502 -1.61,0.7599 -2.503,0.7361 -2.375,0 -3.821,-1.5025 -3.821,-3.3751 z m 5.292,-0.787 c -0.181,-0.8751 -0.942,-1.1544 -1.627,-1.1544 -0.684,0 -1.483,0.3055 -1.703,1.1544 z"
     fill="#0e2b8f"
     id="path26" />
  <path
     d="m 73.9461,23.3438 v -3.1467 c 0,-0.3935 0.218,-0.6081 0.619,-0.6081 h 0.761 c 0.4,0 0.62,0.2146 0.62,0.6081 v 3.0078 c 0,0.9136 0.361,1.4584 1.046,1.4584 0.684,0 1.399,-0.5324 1.399,-1.7501 v -2.7161 c 0,-0.3935 0.22,-0.6081 0.62,-0.6081 h 0.747 c 0.401,0 0.633,0.2146 0.633,0.6081 v 5.3042 c 0,0.3935 -0.232,0.6095 -0.633,0.6095 h -0.747 c -0.4,0 -0.62,-0.216 -0.62,-0.6095 v -0.4128 c -0.336,0.7361 -1.033,1.1668 -2.026,1.1668 -1.769,-0.0055 -2.419,-1.3704 -2.419,-2.9115 z"
     fill="#0e2b8f"
     id="path28" />
  <path
     d="m 81.7431,25.501 v -5.3041 c 0,-0.3935 0.219,-0.6081 0.62,-0.6081 h 0.709 c 0.4,0 0.62,0.2146 0.62,0.6081 v 0.8132 c 0.218,-1.1929 1.148,-1.5617 1.716,-1.5617 l 0.22,0.0124 c 0.309,0.0262 0.373,0.2669 0.373,0.5215 v 0.8874 c 0,0.355 -0.18,0.5078 -0.45,0.4692 -0.108,-0.0139 -0.215,-0.0221 -0.324,-0.0247 -0.774,0 -1.485,0.4953 -1.485,2.1312 v 2.0556 c 0,0.3936 -0.218,0.6096 -0.618,0.6096 h -0.761 c -0.401,0 -0.62,-0.216 -0.62,-0.6096 z"
     fill="#0e2b8f"
     id="path30" />
  <path
     d="m 86.1581,22.8497 c 0,-1.8781 1.575,-3.4013 3.678,-3.4013 2.104,0 3.678,1.5232 3.678,3.4013 0,1.8781 -1.574,3.3998 -3.678,3.3998 -2.103,0 -3.678,-1.5025 -3.678,-3.3998 z m 5.459,0.0124 c 0,-1.0278 -0.787,-1.8149 -1.781,-1.8149 -0.993,0 -1.781,0.7871 -1.781,1.8149 -0.007,0.234 0.034,0.467 0.121,0.6852 0.086,0.2181 0.216,0.417 0.382,0.5849 0.166,0.1678 0.365,0.3013 0.584,0.3924 0.22,0.0911 0.455,0.1381 0.694,0.1381 0.238,0 0.474,-0.047 0.693,-0.1381 0.219,-0.0911 0.418,-0.2246 0.584,-0.3924 0.166,-0.1679 0.296,-0.3668 0.383,-0.5849 0.086,-0.2182 0.127,-0.4512 0.121,-0.6852 z"
     fill="#0e2b8f"
     id="path32" />
  <path
     d="m 94.0181,22.8497 c 0,-1.8781 1.574,-3.4013 3.678,-3.4013 2.103,0 3.679,1.5232 3.679,3.4013 0,1.8781 -1.574,3.3998 -3.679,3.3998 -2.105,0 -3.678,-1.5025 -3.678,-3.3998 z m 5.458,0.0124 c 0,-1.0278 -0.786,-1.8149 -1.781,-1.8149 -0.996,0 -1.781,0.7871 -1.781,1.8149 -0.006,0.234 0.035,0.467 0.121,0.6852 0.087,0.2181 0.217,0.417 0.383,0.5849 0.166,0.1678 0.365,0.3013 0.584,0.3924 0.219,0.0911 0.455,0.1381 0.693,0.1381 0.238,0 0.474,-0.047 0.694,-0.1381 0.219,-0.0911 0.418,-0.2246 0.584,-0.3924 0.166,-0.1679 0.296,-0.3668 0.382,-0.5849 0.087,-0.2182 0.128,-0.4512 0.121,-0.6852 z"
     fill="#0e2b8f"
     id="path34" />
  <path
     d="m 102.3071,28.3437 v -8.1468 c 0,-0.3935 0.22,-0.6081 0.62,-0.6081 h 0.761 c 0.401,0 0.619,0.2146 0.619,0.6081 v 0.3055 c 0.479,-0.7237 1.26,-1.054 2.13,-1.054 1.859,0 3.188,1.4846 3.188,3.4013 0,1.9166 -1.329,3.3998 -3.188,3.3998 -0.877,0 -1.651,-0.3302 -2.13,-1.0663 v 3.1646 c 0,0.3921 -0.218,0.6081 -0.619,0.6081 h -0.761 c -0.403,-0.0041 -0.62,-0.2187 -0.62,-0.6122 z m 5.318,-5.494 c 0,-1.0031 -0.606,-1.8272 -1.651,-1.8272 -1.019,0 -1.691,0.787 -1.691,1.8272 0,1.0402 0.672,1.8272 1.691,1.8272 1.041,0 1.651,-0.8132 1.651,-1.8272 z"
     fill="#0e2b8f"
     id="path36" />
  <path
     d="m 110.1781,22.8497 c 0,-1.9167 1.329,-3.4013 3.188,-3.4013 0.878,0 1.651,0.3302 2.129,1.0664 v -0.3179 c 0,-0.3935 0.219,-0.6081 0.62,-0.6081 h 0.761 c 0.4,0 0.62,0.2146 0.62,0.6081 v 5.3041 c 0,0.3935 -0.22,0.6096 -0.62,0.6096 h -0.761 c -0.401,0 -0.62,-0.2161 -0.62,-0.6096 v -0.304 c -0.478,0.7223 -1.251,1.0525 -2.129,1.0525 -1.859,0 -3.188,-1.4722 -3.188,-3.3998 z m 5.343,0 c 0,-1.0402 -0.671,-1.8272 -1.69,-1.8272 -1.046,0 -1.652,0.8255 -1.652,1.8272 0,1.0016 0.606,1.8272 1.652,1.8272 1.019,0 1.69,-0.787 1.69,-1.8272 z"
     fill="#0e2b8f"
     id="path38" />
  <path
     d="m 121.4201,24.9423 c -0.193,-0.3797 0.013,-0.659 0.42,-0.7609 l 0.401,-0.0894 c 0.348,-0.0881 0.502,0.0771 0.774,0.3426 0.128,0.1295 0.283,0.2305 0.455,0.2962 0.171,0.0658 0.355,0.0947 0.538,0.0849 0.504,0 0.853,-0.2284 0.853,-0.571 0,-0.2752 -0.194,-0.4127 -0.62,-0.571 l -0.814,-0.2751 c -0.684,-0.2161 -1.871,-0.71 -1.871,-1.8905 0,-1.2177 1.033,-2.0556 2.466,-2.0556 0.851,0 1.625,0.2669 2.116,0.9906 0.258,0.3674 0.065,0.6976 -0.361,0.7994 l -0.362,0.0881 c -0.335,0.0894 -0.515,-0.0248 -0.748,-0.2408 -0.085,-0.0805 -0.187,-0.1432 -0.297,-0.1846 -0.111,-0.0414 -0.229,-0.0605 -0.348,-0.0562 -0.413,0 -0.672,0.2532 -0.672,0.5572 0,0.2752 0.259,0.4128 0.606,0.5339 l 0.828,0.3041 c 1.367,0.4444 1.858,1.1667 1.883,1.9661 0,1.3759 -1.238,2.0433 -2.671,2.0433 -1.182,-0.0042 -2.136,-0.4348 -2.576,-1.3113 z"
     fill="#0e2b8f"
     id="path40" />
  <path
     d="m 127.1521,22.8497 c 0,-1.8781 1.574,-3.4013 3.678,-3.4013 2.103,0 3.678,1.5232 3.678,3.4013 0,1.8781 -1.575,3.3998 -3.678,3.3998 -2.104,0 -3.678,-1.5025 -3.678,-3.3998 z m 5.458,0.0124 c 0,-1.0278 -0.788,-1.8149 -1.781,-1.8149 -0.994,0 -1.781,0.7871 -1.781,1.8149 -0.006,0.234 0.035,0.467 0.121,0.6852 0.087,0.2181 0.217,0.417 0.383,0.5849 0.166,0.1678 0.365,0.3013 0.584,0.3924 0.219,0.0911 0.455,0.1381 0.693,0.1381 0.238,0 0.474,-0.047 0.694,-0.1381 0.219,-0.0911 0.418,-0.2246 0.584,-0.3924 0.166,-0.1679 0.296,-0.3668 0.382,-0.5849 0.087,-0.2182 0.128,-0.4512 0.121,-0.6852 z"
     fill="#0e2b8f"
     id="path42" />
  <path
     d="m 135.4651,25.5011 v -7.9555 c 0,-0.3935 0.219,-0.6095 0.62,-0.6095 h 0.748 c 0.401,0 0.633,0.216 0.633,0.6095 v 7.9555 c 0,0.3935 -0.232,0.6096 -0.633,0.6096 h -0.748 c -0.401,0 -0.62,-0.2161 -0.62,-0.6096 z"
     fill="#0e2b8f"
     id="path44" />
  <path
     d="m 138.6521,17.8001 c 0,-0.5848 0.42,-1.0278 1.201,-1.0278 0.781,0 1.201,0.443 1.201,1.0278 0,0.5847 -0.465,1.014 -1.201,1.014 -0.736,0 -1.201,-0.443 -1.201,-1.014 z m 0.208,7.7051 v -5.3083 c 0,-0.3935 0.219,-0.6081 0.62,-0.6081 h 0.755 c 0.399,0 0.632,0.2146 0.632,0.6081 v 5.3041 c 0,0.3935 -0.233,0.6096 -0.632,0.6096 h -0.748 c -0.408,0 -0.627,-0.2161 -0.627,-0.6096 z"
     fill="#0e2b8f"
     id="path46" />
  <path
     d="m 141.8161,22.8497 c 0,-1.9166 1.329,-3.4012 3.201,-3.4012 0.864,0 1.638,0.3302 2.116,1.0663 v -2.9692 c 0,-0.3935 0.232,-0.6095 0.632,-0.6095 h 0.749 c 0.4,0 0.62,0.216 0.62,0.6095 v 7.9555 c 0,0.3935 -0.22,0.6095 -0.62,0.6095 h -0.749 c -0.4,0 -0.632,-0.216 -0.632,-0.6095 V 25.197 c -0.478,0.7224 -1.252,1.0526 -2.116,1.0526 -1.872,0 -3.201,-1.4722 -3.201,-3.3999 z m 5.356,0 c -0.013,-1.0401 -0.685,-1.8272 -1.703,-1.8272 -1.019,0 -1.652,0.8256 -1.652,1.8272 0,1.0017 0.619,1.8272 1.652,1.8272 1.032,0 1.69,-0.787 1.703,-1.8272 z"
     fill="#0e2b8f"
     id="path48" />
  <path
     d="m 150.0891,22.8497 c 0,-1.9167 1.33,-3.4013 3.188,-3.4013 0.878,0 1.652,0.3302 2.129,1.0664 v -0.3179 c 0,-0.3935 0.22,-0.6081 0.62,-0.6081 h 0.761 c 0.401,0 0.62,0.2146 0.62,0.6081 v 5.3041 c 0,0.3935 -0.219,0.6096 -0.62,0.6096 h -0.761 c -0.4,0 -0.62,-0.2161 -0.62,-0.6096 v -0.304 c -0.477,0.7223 -1.251,1.0525 -2.129,1.0525 -1.858,0 -3.188,-1.4722 -3.188,-3.3998 z m 5.344,0 c 0,-1.0402 -0.672,-1.8272 -1.691,-1.8272 -1.045,0 -1.653,0.8255 -1.653,1.8272 0,1.0016 0.608,1.8272 1.653,1.8272 1.019,0 1.691,-0.787 1.691,-1.8272 z"
     fill="#0e2b8f"
     id="path50" />
  <path
     d="m 158.3641,22.8497 c 0,-1.9167 1.33,-3.4013 3.189,-3.4013 0.877,0 1.651,0.3302 2.128,1.0664 v -0.3179 c 0,-0.3935 0.22,-0.6081 0.62,-0.6081 h 0.762 c 0.4,0 0.618,0.2146 0.618,0.6081 v 5.3041 c 0,0.3935 -0.218,0.6096 -0.618,0.6096 h -0.755 c -0.4,0 -0.62,-0.2161 -0.62,-0.6096 v -0.304 c -0.477,0.7223 -1.251,1.0525 -2.128,1.0525 -1.87,0 -3.196,-1.4722 -3.196,-3.3998 z m 5.344,0 c 0,-1.0402 -0.672,-1.8272 -1.691,-1.8272 -1.045,0 -1.653,0.8255 -1.653,1.8272 0,1.0016 0.608,1.8272 1.653,1.8272 1.019,0 1.691,-0.787 1.691,-1.8272 z"
     fill="#0e2b8f"
     id="path52" />
  <path
     d="m 167.0381,25.501 v -5.3041 c 0,-0.3935 0.218,-0.6081 0.619,-0.6081 h 0.709 c 0.4,0 0.62,0.2146 0.62,0.6081 v 0.8132 c 0.22,-1.1929 1.149,-1.5617 1.717,-1.5617 l 0.219,0.0124 c 0.31,0.0262 0.375,0.2669 0.375,0.5215 v 0.8874 c 0,0.355 -0.181,0.5078 -0.452,0.4692 -0.108,-0.0139 -0.215,-0.0222 -0.324,-0.0247 -0.774,0 -1.483,0.4953 -1.483,2.1312 v 2.0556 c 0,0.3936 -0.22,0.6096 -0.62,0.6096 h -0.761 c -0.401,0 -0.619,-0.216 -0.619,-0.6096 z"
     fill="#0e2b8f"
     id="path54" />
  <path
     d="m 171.6461,24.9423 c -0.194,-0.3797 0.012,-0.659 0.419,-0.7609 l 0.401,-0.0894 c 0.348,-0.0881 0.504,0.0771 0.774,0.3426 0.128,0.1295 0.283,0.2305 0.455,0.2962 0.171,0.0658 0.355,0.0947 0.538,0.0849 0.504,0 0.853,-0.2284 0.853,-0.571 0,-0.2752 -0.193,-0.4127 -0.62,-0.571 l -0.813,-0.2751 c -0.683,-0.2161 -1.872,-0.71 -1.872,-1.8905 0,-1.2177 1.033,-2.0556 2.466,-2.0556 0.851,0 1.627,0.2669 2.117,0.9906 0.258,0.3674 0.064,0.6976 -0.362,0.7994 l -0.361,0.0881 c -0.336,0.0894 -0.516,-0.0248 -0.748,-0.2408 -0.086,-0.0807 -0.187,-0.1436 -0.298,-0.1849 -0.111,-0.0414 -0.229,-0.0604 -0.348,-0.0559 -0.419,0 -0.671,0.2532 -0.671,0.5572 0,0.2752 0.259,0.4128 0.607,0.5339 l 0.826,0.3041 c 1.367,0.4444 1.858,1.1667 1.884,1.9661 0,1.3759 -1.239,2.0433 -2.672,2.0433 -1.181,-0.0042 -2.136,-0.4348 -2.575,-1.3113 z"
     fill="#0e2b8f"
     id="path56" />
  <path
     d="m 177.7261,23.3438 v -3.1467 c 0,-0.3935 0.219,-0.6081 0.62,-0.6081 h 0.761 c 0.399,0 0.619,0.2146 0.619,0.6081 v 3.0078 c 0,0.9136 0.361,1.4584 1.045,1.4584 0.684,0 1.4,-0.5324 1.4,-1.7501 v -2.7161 c 0,-0.3935 0.219,-0.6081 0.62,-0.6081 h 0.748 c 0.399,0 0.633,0.2146 0.633,0.6081 v 5.3042 c 0,0.3935 -0.234,0.6095 -0.633,0.6095 h -0.757 c -0.4,0 -0.62,-0.216 -0.62,-0.6095 v -0.4128 c -0.336,0.7361 -1.031,1.1668 -2.026,1.1668 -1.765,-0.0055 -2.41,-1.3704 -2.41,-2.9115 z"
     fill="#0e2b8f"
     id="path58" />
  <path
     d="m 185.1991,24.9423 c -0.194,-0.3797 0.012,-0.659 0.419,-0.7609 l 0.401,-0.0894 c 0.348,-0.0881 0.504,0.0771 0.774,0.3426 0.128,0.1295 0.283,0.2305 0.455,0.2962 0.171,0.0658 0.355,0.0947 0.538,0.0849 0.504,0 0.853,-0.2284 0.853,-0.571 0,-0.2752 -0.194,-0.4127 -0.62,-0.571 l -0.814,-0.2751 c -0.682,-0.2161 -1.871,-0.71 -1.871,-1.8905 0,-1.2177 1.033,-2.0556 2.466,-2.0556 0.851,0 1.627,0.2669 2.116,0.9906 0.258,0.3674 0.065,0.6976 -0.361,0.7994 l -0.362,0.0881 c -0.335,0.0894 -0.515,-0.0248 -0.748,-0.2408 -0.085,-0.0806 -0.186,-0.1435 -0.297,-0.1848 -0.111,-0.0414 -0.229,-0.0604 -0.348,-0.056 -0.42,0 -0.671,0.2532 -0.671,0.5572 0,0.2752 0.258,0.4128 0.607,0.5339 l 0.826,0.3041 c 1.367,0.4444 1.858,1.1667 1.883,1.9661 0,1.3759 -1.238,2.0433 -2.671,2.0433 -1.181,-0.0042 -2.136,-0.4348 -2.575,-1.3113 z"
     fill="#0e2b8f"
     id="path60" />
  <path
     d="m 191.3181,22.7852 v -1.0911 c -0.003,-0.0435 0.003,-0.0872 0.019,-0.1279 0.016,-0.0408 0.041,-0.0776 0.073,-0.1079 0.032,-0.0302 0.07,-0.0531 0.112,-0.0671 0.042,-0.0139 0.087,-0.0186 0.131,-0.0136 h 3.964 c 0.043,-0.0045 0.087,5e-4 0.128,0.0148 0.041,0.0143 0.079,0.0375 0.109,0.0678 0.031,0.0304 0.055,0.0671 0.069,0.1076 0.015,0.0405 0.02,0.0836 0.015,0.1263 v 1.0911 c 0.005,0.0427 0,0.0861 -0.014,0.1267 -0.015,0.0406 -0.038,0.0776 -0.069,0.1081 -0.031,0.0305 -0.068,0.0538 -0.11,0.0681 -0.041,0.0144 -0.085,0.0195 -0.128,0.0149 h -3.964 c -0.044,0.0048 -0.089,-10e-5 -0.131,-0.0142 -0.042,-0.0141 -0.08,-0.0372 -0.112,-0.0675 -0.032,-0.0304 -0.057,-0.0673 -0.073,-0.1081 -0.016,-0.0408 -0.022,-0.0845 -0.019,-0.128 z"
     fill="#0e2b8f"
     id="path62" />
  <path
     d="m 68.9431,39.0304 -0.925,-1.6745 v 2.4767 c 0,0.3935 -0.22,0.6095 -0.62,0.6095 h -0.766 c -0.4,0 -0.618,-0.216 -0.618,-0.6095 v -7.9583 c 0,-0.3921 0.218,-0.6081 0.618,-0.6081 h 0.762 c 0.4,0 0.62,0.216 0.62,0.6081 v 4.7056 l 1.639,-2.2702 c 0.076,-0.1268 0.186,-0.2306 0.318,-0.3001 0.132,-0.0694 0.281,-0.1017 0.43,-0.0934 h 0.865 c 0.529,0 0.7,0.3426 0.374,0.7485 l -1.78,2.273 0.851,1.3566 c 0.323,0.483 0.559,0.6604 0.968,0.6604 0.132,-0.0019 0.263,-0.0232 0.388,-0.0633 0.257,-0.0632 0.42,-0.0261 0.529,0.1899 l 0.28,0.5586 c 0.103,0.2161 0.039,0.4568 -0.296,0.622 -0.406,0.2084 -0.858,0.317 -1.317,0.3164 -1.158,0 -1.816,-0.6081 -2.32,-1.5479 z"
     fill="#0e2b8f"
     id="path64" />
  <path
     d="m 72.7271,37.1782 c 0,-1.8781 1.574,-3.4012 3.678,-3.4012 2.103,0 3.678,1.5231 3.678,3.4012 0,1.8781 -1.568,3.3999 -3.678,3.3999 -2.111,0 -3.678,-1.5094 -3.678,-3.3999 z m 5.458,0.0124 c 0,-1.0278 -0.787,-1.8134 -1.78,-1.8134 -0.994,0 -1.782,0.7856 -1.782,1.8134 -0.007,0.2341 0.035,0.467 0.121,0.6852 0.086,0.2182 0.217,0.4171 0.383,0.5849 0.166,0.1679 0.364,0.3013 0.584,0.3924 0.219,0.0912 0.455,0.1381 0.693,0.1381 0.238,0 0.474,-0.0469 0.693,-0.1381 0.22,-0.0911 0.418,-0.2245 0.584,-0.3924 0.166,-0.1678 0.296,-0.3667 0.383,-0.5849 0.086,-0.2182 0.128,-0.4511 0.121,-0.6852 z"
     fill="#0e2b8f"
     id="path66" />
  <path
     d="M 81.0131,39.8297 V 34.527 c 0,-0.3935 0.219,-0.6096 0.618,-0.6096 h 0.711 c 0.399,0 0.619,0.2161 0.619,0.6096 v 0.8145 c 0.219,-1.1929 1.149,-1.5616 1.717,-1.5616 l 0.218,0.0137 c 0.311,0.0248 0.375,0.2669 0.375,0.5201 v 0.8902 c 0,0.3564 -0.18,0.5077 -0.452,0.4706 -0.106,-0.015 -0.214,-0.0237 -0.322,-0.0262 -0.775,0 -1.484,0.4954 -1.484,2.1313 v 2.0556 c 0,0.3935 -0.22,0.6095 -0.62,0.6095 h -0.762 c -0.399,-0.0055 -0.618,-0.2215 -0.618,-0.615 z"
     fill="#0e2b8f"
     id="path68" />
  <path
     d="m 85.9571,42.6722 v -8.1453 c 0,-0.3936 0.22,-0.6096 0.62,-0.6096 h 0.756 c 0.4,0 0.618,0.216 0.618,0.6096 v 0.304 c 0.479,-0.7237 1.253,-1.0539 2.13,-1.0539 1.859,0 3.189,1.4846 3.189,3.4012 0,1.9167 -1.33,3.3999 -3.189,3.3999 -0.877,0 -1.651,-0.3289 -2.13,-1.065 v 3.1646 c 0,0.3935 -0.218,0.6082 -0.618,0.6082 h -0.756 c -0.4,-0.0055 -0.62,-0.2202 -0.62,-0.6137 z m 5.318,-5.494 c 0,-1.003 -0.606,-1.8272 -1.651,-1.8272 -1.019,0 -1.691,0.787 -1.691,1.8272 0,1.0402 0.672,1.8272 1.691,1.8272 1.044,0 1.65,-0.8118 1.65,-1.8272 z"
     fill="#0e2b8f"
     id="path70" />
  <path
     d="m 94.1401,37.6805 v -3.1536 c 0,-0.3935 0.22,-0.6095 0.62,-0.6095 h 0.762 c 0.4,0 0.62,0.216 0.62,0.6095 v 3.0064 c 0,0.9136 0.361,1.4598 1.044,1.4598 0.683,0 1.399,-0.5338 1.399,-1.7515 v -2.7147 c 0,-0.3935 0.22,-0.6095 0.62,-0.6095 h 0.749 c 0.4,0 0.633,0.216 0.633,0.6095 v 5.3028 c 0,0.3935 -0.233,0.6095 -0.633,0.6095 h -0.749 c -0.4,0 -0.62,-0.216 -0.62,-0.6095 v -0.4128 c -0.334,0.7361 -1.031,1.1668 -2.025,1.1668 -1.775,-0.0055 -2.42,-1.3759 -2.42,-2.9032 z"
     fill="#0e2b8f"
     id="path72" />
  <path
     d="m 101.6081,39.2723 c -0.193,-0.3812 0.014,-0.6605 0.42,-0.7623 l 0.4,-0.088 c 0.349,-0.0895 0.504,0.0756 0.774,0.3426 0.129,0.129 0.285,0.2296 0.456,0.2951 0.172,0.0655 0.355,0.0943 0.539,0.0846 0.503,0 0.851,-0.2284 0.851,-0.571 0,-0.2752 -0.193,-0.4127 -0.618,-0.571 l -0.814,-0.2752 c -0.684,-0.2146 -1.871,-0.7099 -1.871,-1.8904 0,-1.2177 1.032,-2.0556 2.465,-2.0556 0.851,0 1.626,0.2669 2.116,0.9906 0.259,0.3674 0.064,0.6976 -0.361,0.7994 l -0.361,0.0881 c -0.336,0.0894 -0.517,-0.0248 -0.749,-0.2408 -0.086,-0.0807 -0.187,-0.1436 -0.298,-0.1849 -0.111,-0.0414 -0.229,-0.0604 -0.347,-0.0559 -0.42,0 -0.672,0.2532 -0.672,0.5586 0,0.2752 0.259,0.4128 0.607,0.5325 l 0.826,0.3041 c 1.368,0.4444 1.859,1.1681 1.884,1.9675 0,1.3759 -1.239,2.0418 -2.672,2.0418 -1.175,-0.0041 -2.13,-0.4348 -2.575,-1.3098 z"
     fill="#0e2b8f"
     id="path74" />
  <path
     d="m 107.3711,37.203 c 0,-1.8396 1.399,-3.426 3.639,-3.426 1.885,0 3.433,1.1172 3.524,3.1976 0.012,0.3687 -0.246,0.5338 -0.633,0.5338 h -4.618 c -0.027,0.7733 0.761,1.5218 2.039,1.5218 0.517,-0.0017 1.024,-0.1374 1.471,-0.3935 0.348,-0.1899 0.632,-0.1637 0.877,0.128 l 0.14,0.1774 c 0.259,0.3041 0.233,0.6467 -0.116,0.9013 -0.733,0.5012 -1.611,0.7586 -2.504,0.7347 -2.373,0 -3.819,-1.5094 -3.819,-3.3751 z m 5.292,-0.7856 c -0.181,-0.8765 -0.942,-1.1558 -1.627,-1.1558 -0.684,0 -1.485,0.3054 -1.704,1.1558 z"
     fill="#0e2b8f"
     id="path76" />
  <path
     d="m 117.8901,37.1782 c 0,-1.9166 1.33,-3.4012 3.188,-3.4012 0.878,0 1.652,0.3302 2.129,1.0663 v -0.3164 c 0,-0.3936 0.22,-0.6096 0.62,-0.6096 h 0.761 c 0.401,0 0.62,0.216 0.62,0.6096 v 5.3027 c 0,0.3935 -0.219,0.6095 -0.62,0.6095 h -0.761 c -0.4,0 -0.62,-0.216 -0.62,-0.6095 v -0.3041 c -0.477,0.7237 -1.251,1.0526 -2.129,1.0526 -1.858,0 -3.188,-1.4709 -3.188,-3.3999 z m 5.343,0 c 0,-1.0402 -0.671,-1.8272 -1.69,-1.8272 -1.046,0 -1.652,0.8256 -1.652,1.8272 0,1.0017 0.606,1.8272 1.652,1.8272 1.019,0 1.69,-0.787 1.69,-1.8272 z"
     fill="#0e2b8f"
     id="path78" />
  <path
     d="m 127.1581,42.8373 c -0.348,-0.1775 -0.42,-0.4953 -0.22,-0.8379 l 0.156,-0.2752 c 0.193,-0.355 0.477,-0.4128 0.84,-0.2284 0.5,0.2619 1.058,0.4011 1.626,0.4059 1.119,0 1.923,-0.5958 1.923,-1.8905 v -0.4816 c -0.477,0.7237 -1.278,1.0526 -2.142,1.0526 -1.872,0 -3.175,-1.5342 -3.175,-3.3999 0,-1.8657 1.303,-3.4012 3.175,-3.4012 0.864,0 1.639,0.3302 2.117,1.0663 V 34.48 c 0,-0.3687 0.232,-0.5586 0.632,-0.5586 h 0.71 c 0.4,0 0.618,0.216 0.618,0.6095 v 5.4294 c 0,2.5 -1.679,3.4645 -3.678,3.4645 -0.896,0.0128 -1.782,-0.1888 -2.582,-0.5875 z m 4.339,-5.6591 c -0.014,-1.0402 -0.685,-1.852 -1.705,-1.852 -1.02,0 -1.664,0.8489 -1.664,1.852 0,1.003 0.633,1.8519 1.664,1.8519 1.032,0 1.689,-0.8117 1.703,-1.8519 z"
     fill="#0e2b8f"
     id="path80" />
  <path
     d="m 134.3571,37.203 c 0,-1.8396 1.4,-3.426 3.639,-3.426 1.885,0 3.433,1.1172 3.524,3.1976 0.013,0.3687 -0.246,0.5338 -0.633,0.5338 h -4.618 c -0.027,0.7733 0.761,1.5218 2.039,1.5218 0.517,-0.0017 1.024,-0.1374 1.471,-0.3935 0.348,-0.1899 0.633,-0.1637 0.877,0.128 l 0.14,0.1774 c 0.259,0.3041 0.233,0.6467 -0.116,0.9013 -0.733,0.5012 -1.611,0.7586 -2.504,0.7347 -2.369,0 -3.819,-1.5094 -3.819,-3.3751 z m 5.292,-0.7856 c -0.181,-0.8765 -0.942,-1.1558 -1.627,-1.1558 -0.684,0 -1.484,0.3054 -1.704,1.1558 z"
     fill="#0e2b8f"
     id="path82" />
  <path
     d="m 142.4161,39.8296 v -5.3027 c 0,-0.3936 0.219,-0.6096 0.618,-0.6096 h 0.762 c 0.4,0 0.62,0.216 0.62,0.6096 v 0.4306 c 0.323,-0.7485 1.032,-1.1805 2.014,-1.1805 1.78,0 2.425,1.3759 2.425,2.9059 v 3.1467 c 0,0.3935 -0.232,0.6095 -0.633,0.6095 h -0.747 c -0.4,0 -0.62,-0.216 -0.62,-0.6095 v -3.0064 c 0,-0.9136 -0.361,-1.446 -1.045,-1.446 -0.685,0 -1.4,0.5201 -1.4,1.7377 v 2.7147 c 0,0.3935 -0.22,0.6095 -0.62,0.6095 h -0.756 c -0.399,0 -0.618,-0.216 -0.618,-0.6095 z"
     fill="#0e2b8f"
     id="path84" />
  <path
     d="m 150.4521,38.2695 v -2.8894 h -0.659 c -0.044,0.0048 -0.089,-10e-5 -0.131,-0.0142 -0.042,-0.0141 -0.081,-0.0371 -0.113,-0.0675 -0.032,-0.0303 -0.057,-0.0671 -0.073,-0.1079 -0.015,-0.0408 -0.022,-0.0846 -0.019,-0.1282 v -0.8255 c -0.003,-0.0437 0.003,-0.0876 0.019,-0.1285 0.016,-0.0409 0.041,-0.0779 0.073,-0.1082 0.032,-0.0304 0.07,-0.0534 0.113,-0.0675 0.042,-0.014 0.087,-0.0187 0.131,-0.0137 h 0.813 l 0.22,-1.3195 c 0.014,-0.1182 0.075,-0.2265 0.168,-0.3021 0.094,-0.0756 0.213,-0.1128 0.334,-0.1038 h 0.633 c 0.061,-0.0068 0.123,1e-4 0.181,0.02 0.058,0.0199 0.11,0.0525 0.154,0.0952 0.043,0.0427 0.076,0.0944 0.097,0.1515 0.02,0.057 0.027,0.1177 0.02,0.1777 v 1.281 h 1.497 c 0.044,-0.0046 0.088,5e-4 0.129,0.0149 0.041,0.0143 0.079,0.0376 0.11,0.0681 0.031,0.0306 0.054,0.0675 0.069,0.1081 0.014,0.0407 0.019,0.084 0.014,0.1268 v 0.8255 c 0.005,0.0428 0,0.0861 -0.014,0.1267 -0.015,0.0407 -0.038,0.0776 -0.069,0.1081 -0.031,0.0305 -0.069,0.0538 -0.11,0.0682 -0.041,0.0144 -0.085,0.0194 -0.129,0.0148 h -1.497 v 2.9555 c 0,0.4816 0.245,0.6728 0.541,0.6728 0.336,0 0.56,-0.2545 0.56,-0.5971 0.002,-0.0759 -0.002,-0.1518 -0.012,-0.2271 -0.027,-0.2284 0.051,-0.3439 0.27,-0.3439 h 0.788 c 0.081,-0.0084 0.163,0.0129 0.23,0.0598 0.066,0.0469 0.113,0.1162 0.131,0.1947 0.044,0.1617 0.07,0.3279 0.077,0.4953 0,1.4076 -1.019,1.991 -2.22,1.991 -1.121,-0.0028 -2.326,-0.5105 -2.326,-2.3116 z"
     fill="#0e2b8f"
     id="path86" />
  <path
     d="m 155.5941,37.6805 v -3.1536 c 0,-0.3935 0.22,-0.6095 0.62,-0.6095 h 0.761 c 0.4,0 0.62,0.216 0.62,0.6095 v 3.0064 c 0,0.9136 0.361,1.4598 1.044,1.4598 0.683,0 1.4,-0.5338 1.4,-1.7515 v -2.7147 c 0,-0.3935 0.218,-0.6095 0.618,-0.6095 h 0.749 c 0.4,0 0.633,0.216 0.633,0.6095 v 5.3028 c 0,0.3935 -0.233,0.6095 -0.633,0.6095 h -0.749 c -0.4,0 -0.618,-0.216 -0.618,-0.6095 v -0.4128 c -0.336,0.7361 -1.033,1.1668 -2.027,1.1668 -1.773,-0.0055 -2.418,-1.3759 -2.418,-2.9032 z"
     fill="#0e2b8f"
     id="path88" />
  <path
     d="m 163.3001,37.6805 v -3.1536 c 0,-0.3935 0.22,-0.6095 0.62,-0.6095 h 0.762 c 0.4,0 0.619,0.216 0.619,0.6095 v 3.0064 c 0,0.9136 0.362,1.4598 1.045,1.4598 0.683,0 1.399,-0.5338 1.399,-1.7515 v -2.7147 c 0,-0.3935 0.218,-0.6095 0.619,-0.6095 h 0.748 c 0.401,0 0.633,0.216 0.633,0.6095 v 5.3028 c 0,0.3935 -0.232,0.6095 -0.633,0.6095 h -0.745 c -0.401,0 -0.619,-0.216 -0.619,-0.6095 v -0.4128 c -0.336,0.7361 -1.033,1.1668 -2.027,1.1668 -1.776,-0.0055 -2.421,-1.3759 -2.421,-2.9032 z"
     fill="#0e2b8f"
     id="path90" />
  <path
     d="M 171.0841,39.8297 V 34.527 c 0,-0.3935 0.219,-0.6096 0.619,-0.6096 h 0.71 c 0.4,0 0.62,0.2161 0.62,0.6096 v 0.8145 c 0.219,-1.1929 1.149,-1.5616 1.717,-1.5616 l 0.218,0.0137 c 0.311,0.0248 0.375,0.2669 0.375,0.5201 v 0.8902 c 0,0.3564 -0.18,0.5077 -0.452,0.4706 -0.107,-0.0151 -0.215,-0.0238 -0.323,-0.0262 -0.774,0 -1.484,0.4954 -1.484,2.1313 v 2.0556 c 0,0.3935 -0.219,0.6095 -0.62,0.6095 h -0.761 c -0.398,-0.0055 -0.619,-0.2215 -0.619,-0.615 z"
     fill="#0e2b8f"
     id="path92" />
</svg>
