<?xml version="1.0" encoding="UTF-8"?>
<!-- Created with Inkscape (http://www.inkscape.org/) -->
<svg width="62.674mm" height="12.389mm" version="1.1" viewBox="0 0 62.674 12.389" xmlns="http://www.w3.org/2000/svg" xmlns:cc="http://creativecommons.org/ns#" xmlns:dc="http://purl.org/dc/elements/1.1/" xmlns:rdf="http://www.w3.org/1999/02/22-rdf-syntax-ns#">
 <metadata>
  <rdf:RDF>
   <cc:Work rdf:about="">
    <dc:format>image/svg+xml</dc:format>
    <dc:type rdf:resource="http://purl.org/dc/dcmitype/StillImage"/>
    <dc:title/>
   </cc:Work>
  </rdf:RDF>
 </metadata>
 <g transform="translate(-7.9724 -14.316)">
  <g transform="matrix(.35278 0 0 -.35278 2.2694 29.825)" opacity=".97">
   <g transform="scale(.1)">
    <g>
     <path d="m589.36 439.63h-382.06c-25.172 0-45.641-19.711-45.641-43.934v-263.32c0-24.223 20.469-43.922 45.641-43.922h382.06c25.172 0 45.629 19.699 45.629 43.922v263.32c0 24.223-20.457 43.934-45.629 43.934" fill="#fff"/>
     <path d="m447.62 208.02h-36.43v111.61h37.758s53.141 3.969 53.141-54.352c0-58.32-54.469-57.257-54.469-57.257m18.289 179.47h-122.78c-5.582 0-10.153-4.558-10.153-10.14v-226.45c0-5.59 4.571-10.149 10.153-10.149h115.72c115.06 0 124.24 90.328 124.24 115.25v19.09c-3.981 98.879-84.57 112.4-117.18 112.4" fill="#003167"/>
     <path d="m304.6 330v47.34c0 5.578-4.57 10.148-10.152 10.148h-57.93c-5.57 0-10.14-4.57-10.14-10.148v-78.621" fill="#f04e22"/>
     <path d="m226.38 270.08v-119.19c0-5.578 4.566-10.149 10.148-10.149h57.93c5.57 0 10.141 4.571 10.141 10.149v150.48" fill="#003167"/>
     <path d="m589.36 439.63h-382.06c-25.172 0-45.641-19.711-45.641-43.934v-263.32c0-24.223 20.469-43.922 45.641-43.922h382.06c25.172 0 45.629 19.699 45.629 43.922v263.32c0 24.223-20.457 43.934-45.629 43.934m0-13.063c17.961 0 32.582-13.847 32.582-30.871v-263.32c0-17.024-14.621-30.871-32.582-30.871h-382.06c-17.973 0-32.582 13.847-32.582 30.871v263.32c0 17.024 14.609 30.871 32.582 30.871h382.06" fill="#003167"/>
    </g>
    <g transform="scale(10)">
     <text transform="matrix(1 0 0 -1 69.333 14.104)" fill="#003167" font-family="Aino" font-size="33.538px" font-weight="bold"><tspan x="0 24.683983 51.581257 77.908508 101.68673" y="0">KAART</tspan></text>
    </g>
   </g>
  </g>
 </g>
</svg>
