<?xml version="1.0" encoding="UTF-8" standalone="no"?>
<!-- Created with Inkscape (http://www.inkscape.org/) -->

<svg
   version="1.1"
   id="svg2"
   width="1131.4371"
   height="214.24693"
   viewBox="0 0 1131.4372 214.24693"
   xmlns="http://www.w3.org/2000/svg"
   xmlns:svg="http://www.w3.org/2000/svg">
  <defs
     id="defs6">
    <clipPath
       clipPathUnits="userSpaceOnUse"
       id="clipPath20">
      <path
         d="M 0,322 H 1012 V 0 H 0 Z"
         id="path18" />
    </clipPath>
  </defs>
  <g
     id="g10"
     transform="matrix(1.3333333,0,0,-1.3333333,-108.5628,321.67093)">
    <path
       d="m 504.526,200.475 h -5.149 v -50.12 h 5.149 z"
       style="fill:#353535;fill-opacity:1;fill-rule:nonzero;stroke:none"
       id="path12" />
    <g
       id="g14">
      <g
         id="g16"
         clip-path="url(#clipPath20)">
        <g
           id="g22"
           transform="translate(545.7607,150.355)">
          <path
             d="m 0,0 v 24.32 c 0,8.792 -4.748,13.836 -13.026,13.836 -5.513,0 -9.666,-2.525 -11.716,-7.115 l -0.023,6.496 h -4.979 V 0 h 4.979 v 22.258 c 0,6.775 4.242,11.328 10.554,11.328 6.125,0 9.232,-3.498 9.232,-10.399 L -4.979,0 Z"
             style="fill:#353535;fill-opacity:1;fill-rule:nonzero;stroke:none"
             id="path24" />
        </g>
        <g
           id="g26"
           transform="translate(568.7266,150.1143)">
          <path
             d="M 0,0 C 1.022,0 2.056,0.09 3.157,0.279 L 3.37,0.315 V 4.737 L 3.088,4.705 C 2.198,4.607 1.523,4.571 0.508,4.571 c -3.937,0 -5.472,1.731 -5.472,6.171 V 33.449 H 3.37 v 4.328 h -8.334 v 9.627 h -5.148 v -9.627 h -5.861 v -4.328 h 5.861 V 9.711 C -10.112,2.814 -7.183,0 0,0"
             style="fill:#353535;fill-opacity:1;fill-rule:nonzero;stroke:none"
             id="path28" />
        </g>
        <g
           id="g30"
           transform="translate(594.8545,183.9409)">
          <path
             d="M 0,0 C 6.352,0 10.452,-4.493 11.009,-12.034 H -11.278 C -10.648,-4.603 -6.346,0 0,0 m 15.415,-24.551 0.228,0.622 h -5.019 l -0.221,-0.399 c -1.079,-2.626 -4.567,-5.273 -9.929,-5.273 -7.078,0 -11.581,5.104 -11.801,13.341 h 27.4 v 2.182 C 16.073,-2.75 9.765,4.57 0,4.57 c -9.972,0 -16.414,-7.629 -16.414,-19.438 v -0.07 c 0,-11.885 6.432,-19.268 16.785,-19.268 8.5,0 13.684,4.86 15.044,9.655"
             style="fill:#353535;fill-opacity:1;fill-rule:nonzero;stroke:none"
             id="path32" />
        </g>
        <g
           id="g34"
           transform="translate(634.7412,156.2656)">
          <path
             d="m 0,0 c -6.945,0 -11.434,5.405 -11.434,13.768 v 0.07 c 0,8.406 4.489,13.837 11.434,13.837 6.941,0 11.604,-5.59 11.604,-13.907 V 13.7 C 11.604,5.377 7.05,0 0,0 m 11.468,24.392 c -2.267,4.928 -6.824,7.854 -12.28,7.854 -9.392,0 -15.703,-7.397 -15.703,-18.408 v -0.07 c 0,-10.968 6.284,-18.339 15.635,-18.339 5.644,0 10.151,2.804 12.393,7.701 l 0.022,-8.028 c 0,-5.778 -4.276,-9.368 -11.162,-9.368 -5.218,0 -9.11,2.07 -9.917,5.273 l -0.051,0.102 -0.124,0.124 h -4.851 l -0.201,-0.202 0.021,-0.131 c 0.993,-6.006 6.787,-9.737 15.123,-9.737 9.786,0 16.108,5.351 16.108,13.63 v 36.833 h -5.013 z"
             style="fill:#353535;fill-opacity:1;fill-rule:nonzero;stroke:none"
             id="path36" />
        </g>
        <g
           id="g38"
           transform="translate(667.125,173.7124)">
          <path
             d="m 0,0 c 0,5.768 4.054,9.954 9.639,9.954 1.416,0 2.561,-0.143 3.832,-0.474 l 0.317,-0.082 v 5.006 l -0.197,0.046 c -0.956,0.221 -2.224,0.349 -3.479,0.349 -4.923,0 -8.595,-2.441 -10.106,-6.703 L 0,14.179 H -4.98 V -23.357 H 0 Z"
             style="fill:#353535;fill-opacity:1;fill-rule:nonzero;stroke:none"
             id="path40" />
        </g>
        <g
           id="g42"
           transform="translate(709.7852,168.4194)">
          <path
             d="m 0,0 v -4.023 c 0,-5.792 -4.828,-10.159 -11.23,-10.159 -4.914,0 -8.215,2.674 -8.215,6.653 v 0.068 c 0,4.124 2.924,6.322 8.944,6.723 z m -12.077,-18.684 c 5.432,0 9.824,2.539 12.077,6.974 v -6.354 H 5.013 V 7.495 c 0,7.888 -5.148,12.597 -13.771,12.597 -7.706,0 -13.309,-3.891 -14.271,-9.889 l -0.113,-0.456 h 4.988 l 0.123,0.261 c 0.903,3.504 4.235,5.513 9.138,5.513 C -3.074,15.521 0,12.733 0,7.459 V 4.228 l -11.146,-0.74 c -8.628,-0.598 -13.38,-4.511 -13.38,-11.017 v -0.068 c 0,-6.528 5.119,-11.087 12.449,-11.087"
             style="fill:#353535;fill-opacity:1;fill-rule:nonzero;stroke:none"
             id="path44" />
        </g>
        <g
           id="g46"
           transform="translate(740.9893,150.3931)">
          <path
             d="M 0,0 0.213,0.036 V 4.458 L -0.069,4.426 c -0.89,-0.098 -1.565,-0.134 -2.58,-0.134 -3.937,0 -5.472,1.731 -5.472,6.171 V 33.17 h 8.334 v 4.329 h -8.334 v 9.626 h -5.149 v -9.626 h -5.86 V 33.17 h 5.86 V 9.432 c 0,-6.897 2.93,-9.711 10.113,-9.711 1.022,0 2.055,0.091 3.157,0.279"
             style="fill:#353535;fill-opacity:1;fill-rule:nonzero;stroke:none"
             id="path48" />
        </g>
        <g
           id="g50"
           transform="translate(776.1377,160.8223)">
          <path
             d="m 0,0 v 0.068 c 0,5.245 -3.287,8.388 -10.663,10.186 l -5.048,1.204 c -4.825,1.161 -6.885,2.866 -6.885,5.696 v 0.068 c 0,3.498 3.561,6.137 8.283,6.137 4.614,0 7.985,-2.138 8.799,-5.577 l 0.046,-0.197 h 4.898 l -0.042,0.295 c -0.865,5.958 -6.228,9.809 -13.667,9.809 -7.638,0 -13.398,-4.588 -13.398,-10.708 0,-5.184 3.121,-8.241 10.12,-9.907 l 5.083,-1.24 c 5.182,-1.239 7.393,-3.066 7.393,-6.109 v -0.07 c 0,-3.697 -3.839,-6.378 -9.13,-6.378 -4.976,0 -8.531,2.19 -9.512,5.861 l -0.049,0.19 h -5.091 l 0.036,-0.289 c 0.758,-6.151 6.442,-10.126 14.48,-10.126 C -6.033,-11.087 0,-6.424 0,0"
             style="fill:#353535;fill-opacity:1;fill-rule:nonzero;stroke:none"
             id="path52" />
        </g>
        <path
           d="m 785.33,150.355 h 4.98 v 37.537 h -4.98 z"
           style="fill:#353535;fill-opacity:1;fill-rule:nonzero;stroke:none"
           id="path54" />
        <g
           id="g56"
           transform="translate(787.8545,193.5176)">
          <path
             d="m 0,0 c 1.952,0 3.54,1.611 3.54,3.592 0,1.98 -1.588,3.59 -3.54,3.59 -1.971,0 -3.574,-1.61 -3.574,-3.59 C -3.574,1.611 -1.971,0 0,0"
             style="fill:#353535;fill-opacity:1;fill-rule:nonzero;stroke:none"
             id="path58" />
        </g>
        <g
           id="g60"
           transform="translate(816.4521,154.3062)">
          <path
             d="m 0,0 c -7.351,0 -11.738,5.533 -11.738,14.801 v 0.068 c 0,9.246 4.387,14.766 11.738,14.766 7.351,0 11.739,-5.52 11.739,-14.766 V 14.801 C 11.739,5.533 7.351,0 0,0 m 0,34.205 c -10.375,0 -16.819,-7.408 -16.819,-19.336 v -0.068 c 0,-11.949 6.444,-19.372 16.819,-19.372 10.396,0 16.854,7.423 16.854,19.372 v 0.068 C 16.854,26.797 10.396,34.205 0,34.205"
             style="fill:#353535;fill-opacity:1;fill-rule:nonzero;stroke:none"
             id="path62" />
        </g>
        <g
           id="g64"
           transform="translate(857.3896,154.3062)">
          <path
             d="m 0,0 c -7.351,0 -11.738,5.533 -11.738,14.801 v 0.068 c 0,9.246 4.387,14.766 11.738,14.766 7.351,0 11.739,-5.52 11.739,-14.766 V 14.801 C 11.739,5.533 7.351,0 0,0 m 0,34.205 c -10.374,0 -16.819,-7.408 -16.819,-19.336 v -0.068 c 0,-11.949 6.445,-19.372 16.819,-19.372 10.396,0 16.854,7.423 16.854,19.372 v 0.068 C 16.854,26.797 10.396,34.205 0,34.205"
             style="fill:#353535;fill-opacity:1;fill-rule:nonzero;stroke:none"
             id="path66" />
        </g>
        <g
           id="g68"
           transform="translate(900.0557,188.5112)">
          <path
             d="m 0,0 c -5.513,0 -9.666,-2.525 -11.717,-7.116 l -0.021,6.496 h -4.981 v -37.536 h 4.981 v 22.258 c 0,6.775 4.241,11.328 10.552,11.328 6.126,0 9.233,-3.498 9.233,-10.4 v -23.186 h 4.978 v 24.32 C 13.025,-5.044 8.277,0 0,0"
             style="fill:#353535;fill-opacity:1;fill-rule:nonzero;stroke:none"
             id="path70" />
        </g>
        <g
           id="g72"
           transform="translate(926.46,200.6997)">
          <path
             d="m 0,0 c -1.971,0 -3.573,-1.61 -3.573,-3.59 0,-1.981 1.602,-3.592 3.573,-3.592 1.952,0 3.54,1.611 3.54,3.592 C 3.54,-1.61 1.952,0 0,0"
             style="fill:#353535;fill-opacity:1;fill-rule:nonzero;stroke:none"
             id="path74" />
        </g>
        <path
           d="m 923.936,150.355 h 4.98 v 37.537 h -4.98 z"
           style="fill:#353535;fill-opacity:1;fill-rule:nonzero;stroke:none"
           id="path76" />
        <g
           id="g78"
           transform="translate(518.7275,109.0918)">
          <path
             d="m 0,0 -5.015,1.169 c -7.08,1.641 -10.237,4.298 -10.237,8.655 0,5.272 4.772,8.954 11.605,8.954 h 0.091 c 6.403,0 11.188,-3.289 11.918,-8.186 L 8.415,9.944 h 5.148 l -0.054,0.724 c -0.609,7.527 -7.768,12.99 -17.022,12.99 -9.825,0 -16.955,-5.862 -16.955,-13.973 0,-7.136 4.365,-11.328 14.156,-13.59 l 5.013,-1.133 c 7.192,-1.643 10.541,-4.557 10.541,-9.17 v -0.068 c 0,-5.429 -5.208,-9.368 -12.383,-9.368 -7.398,0 -12.908,3.692 -13.398,8.979 l -0.057,0.612 h -5.149 l 0.058,-0.658 v -0.002 c 0.74,-8.261 8.097,-13.81 18.309,-13.81 10.668,0 17.836,5.96 17.836,14.867 C 14.458,-6.51 9.999,-2.298 0,0"
             style="fill:#353535;fill-opacity:1;fill-rule:nonzero;stroke:none"
             id="path80" />
        </g>
        <path
           d="m 542.552,81.599 h 4.98 v 37.537 h -4.98 z"
           style="fill:#353535;fill-opacity:1;fill-rule:nonzero;stroke:none"
           id="path82" />
        <g
           id="g84"
           transform="translate(545.0762,133.5059)">
          <path
             d="m 0,0 c -1.971,0 -3.574,-1.61 -3.574,-3.59 0,-1.981 1.603,-3.592 3.574,-3.592 1.952,0 3.54,1.611 3.54,3.592 C 3.54,-1.61 1.952,0 0,0"
             style="fill:#353535;fill-opacity:1;fill-rule:nonzero;stroke:none"
             id="path86" />
        </g>
        <g
           id="g88"
           transform="translate(575.7393,119.7559)">
          <path
             d="m 0,0 c -5.607,0 -9.655,-2.459 -11.717,-7.116 l -0.021,21.245 h -4.98 v -52.286 h 4.98 v 22.259 c 0,6.774 4.24,11.327 10.552,11.327 6.125,0 9.232,-3.498 9.232,-10.399 v -23.187 h 4.98 v 24.32 C 13.026,-5.044 8.278,0 0,0"
             style="fill:#353535;fill-opacity:1;fill-rule:nonzero;stroke:none"
             id="path90" />
        </g>
        <g
           id="g92"
           transform="translate(606.7676,128.7627)">
          <path
             d="m 0,0 h -5.148 v -9.627 h -5.861 v -4.328 h 5.861 v -23.738 c 0,-6.897 2.929,-9.711 10.112,-9.711 1.022,0 2.056,0.09 3.157,0.279 l 0.213,0.036 v 4.422 l -0.282,-0.032 c -0.89,-0.098 -1.565,-0.134 -2.58,-0.134 -3.937,0 -5.472,1.73 -5.472,6.171 v 22.707 h 8.334 v 4.328 H 0 Z"
             style="fill:#353535;fill-opacity:1;fill-rule:nonzero;stroke:none"
             id="path94" />
        </g>
        <g
           id="g96"
           transform="translate(645.8369,99.6636)">
          <path
             d="m 0,0 v -4.023 c 0,-5.792 -4.828,-10.159 -11.23,-10.159 -4.914,0 -8.215,2.674 -8.215,6.653 v 0.068 c 0,4.124 2.924,6.322 8.944,6.723 z m -8.758,20.092 c -7.706,0 -13.31,-3.891 -14.271,-9.889 l -0.114,-0.456 h 4.989 l 0.123,0.261 c 0.903,3.504 4.235,5.513 9.137,5.513 C -3.075,15.521 0,12.733 0,7.459 V 4.228 l -11.146,-0.74 c -8.628,-0.598 -13.38,-4.511 -13.38,-11.017 v -0.068 c 0,-6.528 5.119,-11.087 12.449,-11.087 5.432,0 9.824,2.539 12.077,6.974 v -6.354 H 5.013 V 7.495 c 0,7.888 -5.148,12.597 -13.771,12.597"
             style="fill:#353535;fill-opacity:1;fill-rule:nonzero;stroke:none"
             id="path98" />
        </g>
        <g
           id="g100"
           transform="translate(677.7705,102.3208)">
          <path
             d="m 0,0 -5.049,1.204 c -4.825,1.161 -6.884,2.865 -6.884,5.695 v 0.069 c 0,3.497 3.561,6.137 8.283,6.137 4.613,0 7.984,-2.138 8.798,-5.578 L 5.195,7.331 h 4.898 L 10.05,7.625 c -0.863,5.959 -6.228,9.81 -13.666,9.81 -7.639,0 -13.398,-4.589 -13.398,-10.708 0,-5.185 3.121,-8.241 10.119,-9.908 l 5.083,-1.239 c 5.183,-1.24 7.394,-3.067 7.394,-6.109 v -0.07 c 0,-3.697 -3.84,-6.378 -9.13,-6.378 -4.976,0 -8.532,2.19 -9.512,5.86 l -0.05,0.191 h -5.09 l 0.035,-0.289 c 0.758,-6.151 6.442,-10.126 14.481,-10.126 8.314,0 14.347,4.663 14.347,11.087 v 0.068 C 10.663,-4.941 7.375,-1.799 0,0"
             style="fill:#353535;fill-opacity:1;fill-rule:nonzero;stroke:none"
             id="path102" />
        </g>
        <g
           id="g104"
           transform="translate(721.8828,96.8779)">
          <path
             d="m 0,0 c 0,-6.988 -4.069,-11.328 -10.62,-11.328 -6.081,0 -9.164,3.5 -9.164,10.401 v 23.185 h -4.98 v -24.32 c 0,-8.792 4.76,-13.836 13.06,-13.836 5.558,0 9.811,2.563 11.704,7.041 v -6.422 H 4.98 V 22.258 H 0 Z"
             style="fill:#353535;fill-opacity:1;fill-rule:nonzero;stroke:none"
             id="path106" />
        </g>
        <g
           id="g108"
           transform="translate(745.1699,128.7627)">
          <path
             d="m 0,0 h -5.148 v -9.627 h -5.861 v -4.328 h 5.861 v -23.738 c 0,-6.897 2.929,-9.711 10.111,-9.711 1.023,0 2.057,0.09 3.158,0.279 l 0.213,0.036 v 4.422 l -0.282,-0.032 c -0.89,-0.098 -1.565,-0.134 -2.581,-0.134 -3.937,0 -5.471,1.73 -5.471,6.171 v 22.707 h 8.334 v 4.328 H 0 Z"
             style="fill:#353535;fill-opacity:1;fill-rule:nonzero;stroke:none"
             id="path110" />
        </g>
        <g
           id="g112"
           transform="translate(786.8145,96.8779)">
          <path
             d="m 0,0 c 0,-6.988 -4.069,-11.328 -10.621,-11.328 -6.081,0 -9.163,3.5 -9.163,10.401 v 23.185 h -4.981 v -24.32 c 0,-8.792 4.76,-13.836 13.06,-13.836 5.559,0 9.812,2.563 11.705,7.041 v -6.422 H 4.979 V 22.258 H 0 Z"
             style="fill:#353535;fill-opacity:1;fill-rule:nonzero;stroke:none"
             id="path114" />
        </g>
        <g
           id="g116"
           transform="translate(818.9512,102.3208)">
          <path
             d="m 0,0 -5.048,1.204 c -4.825,1.161 -6.885,2.865 -6.885,5.695 v 0.069 c 0,3.497 3.561,6.137 8.284,6.137 4.613,0 7.984,-2.138 8.798,-5.578 L 5.195,7.331 h 4.898 l -0.042,0.294 c -0.864,5.959 -6.228,9.81 -13.667,9.81 -7.638,0 -13.398,-4.589 -13.398,-10.708 0,-5.185 3.121,-8.241 10.12,-9.908 l 5.083,-1.239 c 5.183,-1.24 7.393,-3.067 7.393,-6.109 v -0.07 c 0,-3.697 -3.839,-6.378 -9.13,-6.378 -4.975,0 -8.531,2.19 -9.512,5.86 l -0.049,0.191 H -18.2 l 0.036,-0.289 c 0.758,-6.151 6.442,-10.126 14.48,-10.126 8.314,0 14.347,4.663 14.347,11.087 v 0.068 C 10.663,-4.941 7.376,-1.799 0,0"
             style="fill:#353535;fill-opacity:1;fill-rule:nonzero;stroke:none"
             id="path118" />
        </g>
        <g
           id="g120"
           transform="translate(158.4121,200.6182)">
          <path
             d="m 0,0 c -2.795,2.601 -3.469,7.064 -1.573,10.405 l 5.717,8.901 c 1.14,1.806 1.816,3.832 1.816,6.015 0,8.145 -9.184,15.306 -18.26,15.314 -9.075,-0.008 -18.259,-7.169 -18.259,-15.314 0,-2.183 0.676,-4.209 1.817,-6.015 l 5.717,-8.901 C -21.131,7.064 -21.804,2.601 -24.599,0 H -76.99 v -47.722 c 2.6,-2.798 7.066,-3.472 10.408,-1.576 l 8.901,5.716 c 1.806,1.141 3.831,1.817 6.015,1.817 8.145,0 15.306,-9.184 15.314,-18.26 -0.008,-9.076 -7.169,-18.259 -15.314,-18.259 -2.184,0 -4.209,0.676 -6.015,1.817 l -8.901,5.716 c -3.342,1.896 -7.808,1.222 -10.408,-1.577 v -47.722 h 52.391 c 2.795,2.601 3.468,7.065 1.574,10.405 l -5.717,8.901 c -1.141,1.806 -1.817,3.831 -1.817,6.015 0,8.146 9.184,15.306 18.259,15.314 9.076,-0.008 18.26,-7.168 18.26,-15.314 0,-2.184 -0.676,-4.209 -1.816,-6.015 l -5.717,-8.901 c -1.896,-3.34 -1.222,-7.804 1.573,-10.405 H 52.391 V 0 Z"
             style="fill:#71bc51;fill-opacity:1;fill-rule:nonzero;stroke:none"
             id="path122" />
        </g>
        <g
           id="g124"
           transform="translate(458.9131,129.8672)">
          <path
             d="m 0,0 -8.901,-5.716 c -1.806,-1.141 -3.831,-1.817 -6.015,-1.817 -8.146,0 -15.306,9.184 -15.314,18.259 0.008,9.076 7.168,18.26 15.314,18.26 2.184,0 4.209,-0.676 6.015,-1.817 L 0,21.453 c 3.341,-1.896 7.807,-1.223 10.407,1.576 v 47.722 h -52.389 c -2.796,2.601 -3.469,7.064 -1.575,10.405 l 5.717,8.901 c 1.141,1.806 1.817,3.832 1.817,6.015 0,8.145 -9.184,15.306 -18.259,15.314 -9.076,-0.008 -18.26,-7.169 -18.26,-15.314 0,-2.183 0.676,-4.209 1.816,-6.015 l 5.717,-8.901 c 1.895,-3.341 1.222,-7.804 -1.573,-10.405 h -52.392 v -120.05 h 52.392 c 2.795,2.601 3.468,7.065 1.573,10.405 l -5.717,8.901 c -1.14,1.806 -1.816,3.831 -1.816,6.015 0,8.145 9.184,15.306 18.26,15.314 9.075,-0.008 18.259,-7.169 18.259,-15.314 0,-2.184 -0.676,-4.209 -1.817,-6.015 l -5.717,-8.901 c -1.894,-3.34 -1.221,-7.804 1.575,-10.405 H 10.407 V -1.576 C 7.807,1.222 3.341,1.896 0,0"
             style="fill:#fcac2b;fill-opacity:1;fill-rule:nonzero;stroke:none"
             id="path126" />
        </g>
        <g
           id="g128"
           transform="translate(365.3936,158.853)">
          <path
             d="m 0,0 c -2.184,0 -4.209,-0.676 -6.015,-1.817 l -8.901,-5.716 c -3.342,-1.896 -7.808,-1.222 -10.408,1.576 v 47.722 h -52.391 c -2.795,2.601 -3.469,7.065 -1.573,10.405 l 5.716,8.901 c 1.141,1.806 1.817,3.832 1.817,6.015 0,8.145 -9.183,15.306 -18.26,15.314 -9.075,-0.008 -18.259,-7.169 -18.259,-15.314 0,-2.183 0.676,-4.209 1.817,-6.015 l 5.716,-8.901 c 1.895,-3.34 1.221,-7.804 -1.573,-10.405 h -52.391 V -5.957 c -2.601,-2.798 -7.066,-3.472 -10.408,-1.576 l -8.901,5.716 c -1.806,1.141 -3.832,1.817 -6.015,1.817 -8.146,0 -15.306,-9.184 -15.314,-18.26 0.008,-9.075 7.168,-18.259 15.314,-18.259 2.183,0 4.209,0.676 6.015,1.817 l 8.901,5.716 c 3.342,1.896 7.807,1.222 10.408,-1.576 v 0 -47.723 h 52.391 c 2.794,2.601 3.468,7.065 1.573,10.406 l -5.716,8.9 c -1.141,1.806 -1.817,3.832 -1.817,6.015 0,8.146 9.184,15.306 18.259,15.314 9.077,-0.008 18.26,-7.168 18.26,-15.314 0,-2.183 -0.676,-4.209 -1.817,-6.015 l -5.716,-8.9 c -1.896,-3.341 -1.222,-7.805 1.573,-10.406 h 52.391 v 47.723 c 2.6,2.798 7.066,3.472 10.408,1.576 l 8.901,-5.716 c 1.806,-1.141 3.831,-1.817 6.015,-1.817 8.146,0 15.306,9.184 15.313,18.259 C 15.306,-9.184 8.146,0 0,0"
             style="fill:#059fe2;fill-opacity:1;fill-rule:nonzero;stroke:none"
             id="path130" />
        </g>
      </g>
    </g>
  </g>
</svg>
