<?xml version="1.0" encoding="UTF-8"?>
<!-- Created with Inkscape (http://www.inkscape.org/) -->
<svg width="64.795mm" height="12.388mm" version="1.1" viewBox="0 0 64.795 12.388" xmlns="http://www.w3.org/2000/svg" xmlns:cc="http://creativecommons.org/ns#" xmlns:dc="http://purl.org/dc/elements/1.1/" xmlns:rdf="http://www.w3.org/1999/02/22-rdf-syntax-ns#">
 <metadata>
  <rdf:RDF>
   <cc:Work rdf:about="">
    <dc:format>image/svg+xml</dc:format>
    <dc:type rdf:resource="http://purl.org/dc/dcmitype/StillImage"/>
    <dc:title/>
   </cc:Work>
  </rdf:RDF>
 </metadata>
 <g transform="translate(-33.37 -59.484)">
  <g transform="matrix(.35278 0 0 -.35278 27.673 74.993)">
   <g transform="scale(.1)">
    <g>
     <path d="m1952.6 439.63h-382.07c-25.16 0-45.63-19.707-45.63-43.93v-263.32c0-24.207 20.47-43.918 45.63-43.918h382.07c25.17 0 45.63 19.711 45.63 43.918v263.32c0 24.223-20.46 43.93-45.63 43.93" fill="#fff"/>
     <path d="m1810.8 208.01h-36.43v111.61h37.77s53.13 3.981 53.13-54.348c0-58.32-54.47-57.261-54.47-57.261m18.29 179.47h-122.77c-5.59 0-10.16-4.562-10.16-10.14v-226.45c0-5.582 4.57-10.153 10.16-10.153h115.71c115.06 0 124.24 90.34 124.24 115.25v19.09c-3.97 98.891-84.57 112.4-117.18 112.4" fill="#003167"/>
     <path d="m1667.8 330.01v47.34c0 5.578-4.56 10.136-10.14 10.136h-57.93c-5.57 0-10.14-4.558-10.14-10.136v-78.633" fill="#f04e22"/>
     <path d="m1589.6 270.09v-119.19c0-5.582 4.57-10.153 10.14-10.153h57.93c5.57 0 10.14 4.571 10.14 10.153v150.47" fill="#003167"/>
     <path d="m1952.6 439.63h-382.07c-25.16 0-45.63-19.707-45.63-43.93v-263.32c0-24.207 20.47-43.918 45.63-43.918h382.07c25.17 0 45.63 19.711 45.63 43.918v263.32c0 24.223-20.46 43.93-45.63 43.93m0-13.059c17.96 0 32.58-13.84 32.58-30.871v-263.32c0-17.008-14.62-30.859-32.58-30.859h-382.07c-17.96 0-32.57 13.851-32.57 30.859v263.32c0 17.031 14.61 30.871 32.57 30.871h382.07" fill="#003167"/>
    </g>
    <g transform="scale(10)">
     <text transform="matrix(1 0 0 -1 13.486 14.084)" fill="#003167" font-family="Aino" font-size="33.306px" font-weight="bold"><tspan x="0 36.203403 64.04705 88.859764 99.820702 110.775" y="0">MOBIIL</tspan></text>
    </g>
   </g>
  </g>
 </g>
</svg>
