<?xml version="1.0" encoding="UTF-8" standalone="no"?>
<!-- Created with Inkscape (http://www.inkscape.org/) -->

<svg
   version="1.1"
   id="svg2"
   width="220.64267"
   height="38.093468"
   viewBox="0 0 220.64267 38.093468"
   xmlns="http://www.w3.org/2000/svg"
   xmlns:svg="http://www.w3.org/2000/svg">
  <defs
     id="defs6">
    <clipPath
       clipPathUnits="userSpaceOnUse"
       id="clipPath18">
      <path
         d="M 0,28.57 H 165.482 V 0 H 0 Z"
         id="path16" />
    </clipPath>
  </defs>
  <g
     id="g10"
     transform="matrix(1.3333333,0,0,-1.3333333,0,38.093467)">
    <g
       id="g12">
      <g
         id="g14"
         clip-path="url(#clipPath18)">
        <g
           id="g20"
           transform="translate(8.4941,12.7915)">
          <path
             d="m 0,0 c -2.568,0 -4.825,1.331 -6.119,3.34 h 9.002 v 0 H 5.764 L 4.17,4.693 c 0,0 -0.727,-0.242 -1.484,-0.242 H 1.182 v 0 c -0.352,0 -0.471,0.045 -0.629,0.394 l -4.021,8.825 c 1.031,0.561 2.212,0.879 3.468,0.879 4.018,0 7.275,-3.257 7.275,-7.274 C 7.275,3.257 4.018,0 0,0 m 0,15.779 c -1.804,0 -3.476,-0.562 -4.852,-1.52 0.001,-0.002 4.246,-9.335 4.336,-9.531 0.098,-0.216 0.243,-0.277 0.243,-0.277 v 0 H -1.03 v 0 c -0.352,0 -0.471,0.045 -0.629,0.394 l -3.999,8.777 C -5.929,13.381 -6.184,13.123 -6.422,12.849 -5.193,10.146 -2.82,4.93 -2.728,4.728 -2.63,4.512 -2.485,4.451 -2.485,4.451 v 0 h -0.757 v 0 c -0.352,0 -0.471,0.045 -0.629,0.394 l -3.235,7.101 C -7.337,11.595 -7.543,11.227 -7.721,10.842 -6.493,8.143 -5.012,4.887 -4.94,4.728 -4.842,4.512 -4.697,4.451 -4.697,4.451 v 0 h -0.756 v 0 c -0.352,0 -0.471,0.045 -0.63,0.394 L -8.207,9.508 C -8.366,8.921 -8.465,8.309 -8.494,7.679 -7.772,6.092 -7.196,4.825 -7.151,4.728 -7.053,4.512 -6.908,4.451 -6.908,4.451 v 0 h -0.757 c -0.172,0 -0.288,0.011 -0.38,0.062 1.147,-3.341 4.315,-5.742 8.045,-5.742 4.697,0 8.504,3.807 8.504,8.504 0,4.696 -3.807,8.504 -8.504,8.504"
             style="fill:#1175bf;fill-opacity:1;fill-rule:nonzero;stroke:none"
             id="path22" />
        </g>
        <g
           id="g24"
           transform="translate(26.7168,23.9385)">
          <path
             d="m 0,0 v -2.756 h 2.021 c 0.599,0 1.037,0.111 1.317,0.335 0.279,0.223 0.419,0.571 0.419,1.043 0,0.472 -0.14,0.82 -0.419,1.044 C 3.058,-0.111 2.62,0 2.021,0 Z m 0,-4.14 v -3.575 h -1.469 v 9.1 h 3.53 C 2.584,1.385 3.047,1.321 3.448,1.193 3.849,1.065 4.186,0.882 4.459,0.644 4.732,0.405 4.937,0.115 5.076,-0.228 5.215,-0.57 5.284,-0.953 5.284,-1.378 5.284,-1.803 5.215,-2.186 5.076,-2.528 4.937,-2.871 4.732,-3.161 4.459,-3.399 4.186,-3.638 3.849,-3.821 3.448,-3.949 3.047,-4.077 2.584,-4.14 2.061,-4.14 Z"
             style="fill:#1175bf;fill-opacity:1;fill-rule:nonzero;stroke:none"
             id="path26" />
        </g>
        <g
           id="g28"
           transform="translate(36.1934,21.332)">
          <path
             d="m 0,0 c -0.277,0 -0.535,-0.049 -0.773,-0.146 -0.239,-0.098 -0.445,-0.234 -0.618,-0.41 -0.173,-0.175 -0.31,-0.385 -0.409,-0.63 -0.1,-0.245 -0.15,-0.515 -0.15,-0.81 0,-0.294 0.05,-0.564 0.15,-0.809 0.099,-0.244 0.236,-0.455 0.409,-0.63 0.173,-0.176 0.379,-0.312 0.618,-0.41 0.238,-0.097 0.496,-0.146 0.773,-0.146 0.277,0 0.535,0.049 0.773,0.146 0.239,0.098 0.446,0.234 0.622,0.41 0.175,0.175 0.313,0.386 0.412,0.63 0.1,0.245 0.15,0.515 0.15,0.809 0,0.295 -0.05,0.565 -0.15,0.81 C 1.708,-0.941 1.57,-0.731 1.395,-0.556 1.219,-0.38 1.012,-0.244 0.773,-0.146 0.535,-0.049 0.277,0 0,0 m -2.411,3.107 c 0.221,0.247 0.453,0.43 0.695,0.549 0.243,0.119 0.531,0.179 0.864,0.179 0.222,0 0.416,-0.022 0.586,-0.068 C -0.097,3.721 0.053,3.67 0.186,3.614 0.317,3.558 0.439,3.507 0.549,3.461 0.66,3.416 0.767,3.393 0.871,3.393 c 0.143,0 0.281,0.036 0.413,0.107 0.132,0.072 0.28,0.177 0.445,0.315 L 2.431,2.951 C 2.21,2.704 1.979,2.521 1.736,2.402 1.493,2.283 1.205,2.223 0.871,2.223 0.654,2.223 0.463,2.246 0.296,2.292 0.129,2.337 -0.021,2.388 -0.153,2.444 -0.285,2.5 -0.407,2.551 -0.52,2.597 -0.633,2.643 -0.743,2.665 -0.852,2.665 -0.994,2.665 -1.132,2.629 -1.264,2.558 -1.396,2.486 -1.545,2.381 -1.709,2.243 Z M 0,1.281 C 0.481,1.281 0.926,1.197 1.336,1.03 1.746,0.863 2.1,0.634 2.398,0.341 2.698,0.049 2.932,-0.297 3.101,-0.695 3.27,-1.094 3.354,-1.527 3.354,-1.996 3.354,-2.463 3.27,-2.897 3.101,-3.295 2.932,-3.694 2.698,-4.04 2.398,-4.332 2.1,-4.625 1.746,-4.854 1.336,-5.021 0.926,-5.188 0.481,-5.271 0,-5.271 c -0.481,0 -0.926,0.083 -1.335,0.25 -0.41,0.167 -0.763,0.396 -1.06,0.689 -0.297,0.292 -0.53,0.638 -0.699,1.037 -0.169,0.398 -0.253,0.832 -0.253,1.299 0,0.469 0.084,0.902 0.253,1.301 0.169,0.398 0.402,0.744 0.699,1.036 0.297,0.293 0.65,0.522 1.06,0.689 0.409,0.167 0.854,0.251 1.335,0.251"
             style="fill:#1175bf;fill-opacity:1;fill-rule:nonzero;stroke:none"
             id="path30" />
        </g>
        <g
           id="g32"
           transform="translate(42.2061,21.709)">
          <path
             d="M 0,0 C 0.125,0.178 0.265,0.325 0.419,0.442 0.573,0.559 0.733,0.651 0.9,0.718 1.067,0.786 1.236,0.833 1.407,0.861 1.578,0.89 1.742,0.904 1.898,0.904 2.266,0.904 2.605,0.843 2.915,0.722 3.225,0.6 3.493,0.43 3.718,0.211 c 0.225,-0.218 0.4,-0.48 0.523,-0.783 0.124,-0.303 0.185,-0.637 0.185,-1.001 V -5.486 H 3.062 v 3.465 c 0,0.524 -0.127,0.927 -0.381,1.209 C 2.428,-0.531 2.071,-0.39 1.612,-0.39 1.391,-0.39 1.183,-0.426 0.988,-0.497 0.793,-0.568 0.623,-0.674 0.478,-0.812 0.333,-0.951 0.216,-1.124 0.13,-1.329 0.043,-1.535 0,-1.77 0,-2.034 v -3.452 h -1.365 v 9.36 H 0 Z"
             style="fill:#1175bf;fill-opacity:1;fill-rule:nonzero;stroke:none"
             id="path34" />
        </g>
        <g
           id="g36"
           transform="translate(49.0176,25.5635)">
          <path
             d="m 0,0 c 0.134,0 0.26,-0.025 0.377,-0.075 0.117,-0.05 0.219,-0.118 0.306,-0.204 0.086,-0.087 0.154,-0.189 0.204,-0.306 0.05,-0.117 0.075,-0.243 0.075,-0.377 0,-0.134 -0.025,-0.26 -0.075,-0.377 C 0.837,-1.456 0.769,-1.557 0.683,-1.641 0.596,-1.726 0.494,-1.792 0.377,-1.839 0.26,-1.887 0.134,-1.911 0,-1.911 c -0.134,0 -0.26,0.024 -0.377,0.072 -0.117,0.047 -0.218,0.113 -0.302,0.198 -0.085,0.084 -0.151,0.185 -0.198,0.302 -0.048,0.117 -0.072,0.243 -0.072,0.377 0,0.134 0.024,0.26 0.072,0.377 0.047,0.117 0.113,0.219 0.198,0.306 0.084,0.086 0.185,0.154 0.302,0.204 C -0.26,-0.025 -0.134,0 0,0 m 0.696,-10.107 c 0,-0.321 -0.045,-0.602 -0.134,-0.845 -0.088,-0.243 -0.214,-0.446 -0.376,-0.611 -0.163,-0.166 -0.356,-0.29 -0.579,-0.375 -0.223,-0.083 -0.469,-0.126 -0.738,-0.126 -0.161,0 -0.326,0.017 -0.497,0.048 -0.171,0.034 -0.32,0.08 -0.445,0.141 l 0.318,1.183 c 0.16,-0.061 0.327,-0.091 0.501,-0.091 0.16,0 0.297,0.056 0.412,0.169 0.115,0.113 0.173,0.303 0.173,0.572 v 6.929 h 1.365 z"
             style="fill:#1175bf;fill-opacity:1;fill-rule:nonzero;stroke:none"
             id="path38" />
        </g>
        <g
           id="g40"
           transform="translate(54.2827,21.332)">
          <path
             d="m 0,0 c -0.295,0 -0.558,-0.053 -0.79,-0.159 -0.231,-0.106 -0.428,-0.249 -0.588,-0.429 -0.161,-0.18 -0.284,-0.391 -0.371,-0.634 -0.086,-0.243 -0.129,-0.5 -0.129,-0.774 0,-0.273 0.043,-0.53 0.129,-0.773 0.087,-0.243 0.21,-0.454 0.371,-0.634 0.16,-0.18 0.357,-0.323 0.588,-0.429 0.232,-0.106 0.495,-0.159 0.79,-0.159 0.282,0 0.537,0.051 0.767,0.153 0.23,0.102 0.427,0.241 0.591,0.419 0.165,0.178 0.293,0.388 0.384,0.63 0.091,0.243 0.136,0.508 0.136,0.793 0,0.287 -0.045,0.551 -0.136,0.794 C 1.651,-0.96 1.523,-0.75 1.358,-0.572 1.194,-0.394 0.997,-0.254 0.767,-0.153 0.537,-0.051 0.282,0 0,0 M 3.152,-5.109 H 1.794 v 0.748 C 1.577,-4.639 1.309,-4.86 0.988,-5.024 0.667,-5.189 0.284,-5.271 -0.163,-5.271 c -0.437,0 -0.844,0.081 -1.222,0.243 -0.377,0.163 -0.706,0.389 -0.988,0.68 -0.281,0.29 -0.502,0.636 -0.663,1.036 -0.16,0.401 -0.24,0.84 -0.24,1.316 0,0.477 0.08,0.916 0.24,1.317 0.161,0.401 0.382,0.746 0.663,1.036 0.282,0.291 0.611,0.518 0.988,0.68 0.378,0.162 0.785,0.244 1.222,0.244 0.447,0 0.83,-0.084 1.151,-0.251 C 1.309,0.863 1.577,0.642 1.794,0.364 v 0.754 h 1.358 z"
             style="fill:#1175bf;fill-opacity:1;fill-rule:nonzero;stroke:none"
             id="path42" />
        </g>
        <g
           id="g44"
           transform="translate(66.8662,22.6128)">
          <path
             d="m 0,0 c 0.368,0 0.708,-0.061 1.018,-0.182 0.309,-0.122 0.577,-0.292 0.802,-0.51 0.225,-0.219 0.4,-0.48 0.523,-0.784 0.124,-0.303 0.186,-0.637 0.186,-1.001 V -6.39 H 1.164 v 3.465 c 0,0.524 -0.127,0.927 -0.381,1.209 -0.253,0.281 -0.61,0.423 -1.069,0.423 -0.221,0 -0.429,-0.037 -0.624,-0.108 -0.195,-0.071 -0.365,-0.177 -0.51,-0.315 -0.145,-0.139 -0.261,-0.311 -0.348,-0.517 -0.086,-0.206 -0.13,-0.441 -0.13,-0.705 V -6.39 h -1.365 v 3.465 c 0,0.524 -0.127,0.927 -0.38,1.209 -0.253,0.281 -0.61,0.423 -1.069,0.423 -0.222,0 -0.43,-0.037 -0.624,-0.108 -0.195,-0.071 -0.366,-0.177 -0.511,-0.315 -0.145,-0.139 -0.261,-0.311 -0.347,-0.517 -0.087,-0.206 -0.13,-0.441 -0.13,-0.705 V -6.39 h -1.365 v 6.227 h 1.352 v -0.76 c 0.125,0.182 0.265,0.332 0.419,0.452 0.154,0.119 0.315,0.213 0.484,0.283 0.169,0.069 0.339,0.117 0.51,0.146 0.172,0.028 0.337,0.042 0.498,0.042 0.476,0 0.9,-0.099 1.27,-0.296 0.371,-0.197 0.664,-0.469 0.881,-0.816 0.134,0.221 0.293,0.404 0.475,0.55 0.182,0.145 0.373,0.258 0.575,0.341 0.202,0.082 0.407,0.139 0.618,0.172 C -0.397,-0.017 -0.195,0 0,0"
             style="fill:#1175bf;fill-opacity:1;fill-rule:nonzero;stroke:none"
             id="path46" />
        </g>
        <g
           id="g48"
           transform="translate(73.8994,21.332)">
          <path
             d="m 0,0 c -0.295,0 -0.558,-0.053 -0.79,-0.159 -0.231,-0.106 -0.428,-0.249 -0.588,-0.429 -0.161,-0.18 -0.284,-0.391 -0.371,-0.634 -0.086,-0.243 -0.129,-0.5 -0.129,-0.774 0,-0.273 0.043,-0.53 0.129,-0.773 0.087,-0.243 0.21,-0.454 0.371,-0.634 0.16,-0.18 0.357,-0.323 0.588,-0.429 0.232,-0.106 0.495,-0.159 0.79,-0.159 0.282,0 0.537,0.051 0.767,0.153 0.23,0.102 0.427,0.241 0.591,0.419 0.165,0.178 0.293,0.388 0.384,0.63 0.091,0.243 0.136,0.508 0.136,0.793 0,0.287 -0.045,0.551 -0.136,0.794 C 1.651,-0.96 1.523,-0.75 1.358,-0.572 1.194,-0.394 0.997,-0.254 0.767,-0.153 0.537,-0.051 0.282,0 0,0 M 3.152,-5.109 H 1.794 v 0.748 C 1.577,-4.639 1.309,-4.86 0.988,-5.024 0.667,-5.189 0.284,-5.271 -0.163,-5.271 c -0.437,0 -0.844,0.081 -1.222,0.243 -0.377,0.163 -0.706,0.389 -0.988,0.68 -0.281,0.29 -0.502,0.636 -0.663,1.036 -0.16,0.401 -0.24,0.84 -0.24,1.316 0,0.477 0.08,0.916 0.24,1.317 0.161,0.401 0.382,0.746 0.663,1.036 0.282,0.291 0.611,0.518 0.988,0.68 0.378,0.162 0.785,0.244 1.222,0.244 0.447,0 0.83,-0.084 1.151,-0.251 C 1.309,0.863 1.577,0.642 1.794,0.364 v 0.754 h 1.358 z"
             style="fill:#1175bf;fill-opacity:1;fill-rule:nonzero;stroke:none"
             id="path50" />
        </g>
        <g
           id="g52"
           transform="translate(81.6216,21.332)">
          <path
             d="m 0,0 c -0.295,0 -0.558,-0.053 -0.79,-0.159 -0.231,-0.106 -0.428,-0.249 -0.588,-0.429 -0.161,-0.18 -0.284,-0.391 -0.371,-0.634 -0.086,-0.243 -0.129,-0.5 -0.129,-0.774 0,-0.273 0.043,-0.53 0.129,-0.773 0.087,-0.243 0.21,-0.454 0.371,-0.634 0.16,-0.18 0.357,-0.323 0.588,-0.429 0.232,-0.106 0.495,-0.159 0.79,-0.159 0.282,0 0.537,0.051 0.767,0.153 0.23,0.102 0.427,0.241 0.591,0.419 0.165,0.178 0.293,0.388 0.384,0.63 0.091,0.243 0.136,0.508 0.136,0.793 0,0.287 -0.045,0.551 -0.136,0.794 C 1.651,-0.96 1.523,-0.75 1.358,-0.572 1.194,-0.394 0.997,-0.254 0.767,-0.153 0.537,-0.051 0.282,0 0,0 M 3.152,-5.109 H 1.794 v 0.748 C 1.577,-4.639 1.309,-4.86 0.988,-5.024 0.667,-5.189 0.284,-5.271 -0.163,-5.271 c -0.437,0 -0.844,0.081 -1.222,0.243 -0.377,0.163 -0.706,0.389 -0.988,0.68 -0.281,0.29 -0.502,0.636 -0.663,1.036 -0.16,0.401 -0.24,0.84 -0.24,1.316 0,0.477 0.08,0.916 0.24,1.317 0.161,0.401 0.382,0.746 0.663,1.036 0.282,0.291 0.611,0.518 0.988,0.68 0.378,0.162 0.785,0.244 1.222,0.244 0.447,0 0.83,-0.084 1.151,-0.251 C 1.309,0.863 1.577,0.642 1.794,0.364 v 0.754 h 1.358 z"
             style="fill:#1175bf;fill-opacity:1;fill-rule:nonzero;stroke:none"
             id="path54" />
        </g>
        <g
           id="g56"
           transform="translate(89.3433,21.332)">
          <path
             d="m 0,0 c -0.295,0 -0.558,-0.053 -0.79,-0.159 -0.231,-0.106 -0.428,-0.249 -0.588,-0.429 -0.161,-0.18 -0.284,-0.391 -0.371,-0.634 -0.086,-0.243 -0.129,-0.5 -0.129,-0.774 0,-0.273 0.043,-0.53 0.129,-0.773 0.087,-0.243 0.21,-0.454 0.371,-0.634 0.16,-0.18 0.357,-0.323 0.588,-0.429 0.232,-0.106 0.495,-0.159 0.79,-0.159 0.282,0 0.537,0.051 0.767,0.153 0.23,0.102 0.427,0.241 0.591,0.419 0.165,0.178 0.293,0.388 0.384,0.63 0.091,0.243 0.136,0.508 0.136,0.793 0,0.287 -0.045,0.551 -0.136,0.794 C 1.651,-0.96 1.523,-0.75 1.358,-0.572 1.194,-0.394 0.997,-0.254 0.767,-0.153 0.537,-0.051 0.282,0 0,0 M -0.163,1.281 C 0.284,1.281 0.667,1.197 0.988,1.03 1.309,0.863 1.577,0.642 1.794,0.364 v 3.887 h 1.358 v -9.36 H 1.794 v 0.748 C 1.577,-4.639 1.309,-4.86 0.988,-5.024 0.667,-5.189 0.284,-5.271 -0.163,-5.271 c -0.437,0 -0.844,0.081 -1.222,0.243 -0.377,0.163 -0.706,0.389 -0.988,0.68 -0.281,0.29 -0.502,0.636 -0.663,1.036 -0.16,0.401 -0.24,0.84 -0.24,1.316 0,0.477 0.08,0.916 0.24,1.317 0.161,0.401 0.382,0.746 0.663,1.036 0.282,0.291 0.611,0.518 0.988,0.68 0.378,0.162 0.785,0.244 1.222,0.244"
             style="fill:#1175bf;fill-opacity:1;fill-rule:nonzero;stroke:none"
             id="path58" />
        </g>
        <g
           id="g60"
           transform="translate(96.8638,21.4038)">
          <path
             d="M 0,0 C -0.243,0 -0.458,-0.037 -0.646,-0.111 -0.835,-0.185 -0.998,-0.29 -1.134,-0.426 -1.271,-0.562 -1.382,-0.725 -1.469,-0.914 -1.556,-1.102 -1.616,-1.309 -1.651,-1.534 H 1.58 C 1.506,-1.049 1.333,-0.672 1.06,-0.403 0.787,-0.135 0.434,0 0,0 M 0.026,1.209 C 0.459,1.209 0.857,1.13 1.219,0.972 1.581,0.813 1.891,0.59 2.148,0.302 2.406,0.014 2.607,-0.331 2.753,-0.731 2.898,-1.132 2.971,-1.575 2.971,-2.061 2.971,-2.147 2.968,-2.234 2.964,-2.321 2.96,-2.407 2.953,-2.49 2.945,-2.568 h -4.602 c 0.043,-0.282 0.123,-0.522 0.24,-0.721 0.117,-0.2 0.258,-0.363 0.422,-0.491 0.165,-0.128 0.349,-0.222 0.553,-0.282 0.204,-0.062 0.416,-0.092 0.637,-0.092 0.312,0 0.625,0.058 0.939,0.173 0.315,0.114 0.602,0.276 0.862,0.484 L 2.671,-4.466 C 2.29,-4.791 1.886,-5.018 1.459,-5.148 1.033,-5.278 0.583,-5.343 0.111,-5.343 c -0.468,0 -0.898,0.078 -1.287,0.234 -0.39,0.156 -0.726,0.377 -1.008,0.663 -0.282,0.286 -0.501,0.631 -0.656,1.033 -0.157,0.403 -0.234,0.852 -0.234,1.346 0,0.485 0.075,0.929 0.227,1.332 0.152,0.403 0.364,0.749 0.637,1.037 0.273,0.288 0.599,0.511 0.979,0.67 0.378,0.158 0.798,0.237 1.257,0.237"
             style="fill:#1175bf;fill-opacity:1;fill-rule:nonzero;stroke:none"
             id="path62" />
        </g>
        <g
           id="g64"
           transform="translate(114.2188,16.2231)">
          <path
             d="M 0,0 H -1.469 V 7.488 L -4.128,0.891 H -5.675 L -8.333,7.417 V 0 h -1.469 v 9.1 h 2.255 l 2.646,-6.5 2.645,6.5 H 0 Z"
             style="fill:#1175bf;fill-opacity:1;fill-rule:nonzero;stroke:none"
             id="path66" />
        </g>
        <path
           d="m 117.494,16.223 h -1.364 v 6.227 h 1.364 z m -0.688,9.34 c 0.133,0 0.259,-0.024 0.377,-0.074 0.117,-0.05 0.218,-0.118 0.305,-0.205 0.086,-0.087 0.155,-0.188 0.204,-0.305 0.05,-0.117 0.076,-0.243 0.076,-0.377 0,-0.135 -0.026,-0.26 -0.076,-0.377 -0.049,-0.118 -0.118,-0.218 -0.204,-0.303 -0.087,-0.084 -0.188,-0.15 -0.305,-0.198 -0.118,-0.048 -0.244,-0.071 -0.377,-0.071 -0.135,0 -0.26,0.023 -0.377,0.071 -0.117,0.048 -0.218,0.114 -0.303,0.198 -0.084,0.085 -0.15,0.185 -0.198,0.303 -0.048,0.117 -0.072,0.242 -0.072,0.377 0,0.134 0.024,0.26 0.072,0.377 0.048,0.117 0.114,0.218 0.198,0.305 0.085,0.087 0.186,0.155 0.303,0.205 0.117,0.05 0.242,0.074 0.377,0.074"
           style="fill:#1175bf;fill-opacity:1;fill-rule:nonzero;stroke:none"
           id="path68" />
        <g
           id="g70"
           transform="translate(122.499,22.6128)">
          <path
             d="m 0,0 c 0.368,0 0.707,-0.061 1.018,-0.182 0.309,-0.122 0.577,-0.292 0.802,-0.51 0.225,-0.219 0.4,-0.48 0.523,-0.784 0.124,-0.303 0.185,-0.637 0.185,-1.001 V -6.39 H 1.163 v 3.465 c 0,0.524 -0.126,0.927 -0.38,1.209 -0.254,0.281 -0.61,0.423 -1.069,0.423 -0.221,0 -0.429,-0.037 -0.624,-0.108 -0.195,-0.071 -0.365,-0.177 -0.51,-0.315 -0.145,-0.139 -0.262,-0.311 -0.349,-0.517 -0.085,-0.206 -0.129,-0.441 -0.129,-0.705 V -6.39 h -1.365 v 6.227 h 1.352 v -0.76 c 0.126,0.182 0.265,0.332 0.419,0.452 0.154,0.119 0.315,0.213 0.484,0.283 0.169,0.069 0.339,0.117 0.511,0.146 C -0.326,-0.014 -0.16,0 0,0"
             style="fill:#1175bf;fill-opacity:1;fill-rule:nonzero;stroke:none"
             id="path72" />
        </g>
        <path
           d="m 128.069,16.223 h -1.364 v 6.227 h 1.364 z m -0.688,9.34 c 0.134,0 0.26,-0.024 0.377,-0.074 0.117,-0.05 0.219,-0.118 0.305,-0.205 0.086,-0.087 0.155,-0.188 0.205,-0.305 0.049,-0.117 0.075,-0.243 0.075,-0.377 0,-0.135 -0.026,-0.26 -0.075,-0.377 -0.05,-0.118 -0.119,-0.218 -0.205,-0.303 -0.086,-0.084 -0.188,-0.15 -0.305,-0.198 -0.117,-0.048 -0.243,-0.071 -0.377,-0.071 -0.135,0 -0.26,0.023 -0.377,0.071 -0.117,0.048 -0.218,0.114 -0.303,0.198 -0.084,0.085 -0.15,0.185 -0.198,0.303 -0.048,0.117 -0.071,0.242 -0.071,0.377 0,0.134 0.023,0.26 0.071,0.377 0.048,0.117 0.114,0.218 0.198,0.305 0.085,0.087 0.186,0.155 0.303,0.205 0.117,0.05 0.242,0.074 0.377,0.074"
           style="fill:#1175bf;fill-opacity:1;fill-rule:nonzero;stroke:none"
           id="path74" />
        <g
           id="g76"
           transform="translate(134.0498,20.8901)">
          <path
             d="m 0,0 c -0.095,0.056 -0.212,0.116 -0.351,0.179 -0.138,0.063 -0.293,0.12 -0.461,0.172 -0.169,0.052 -0.348,0.095 -0.537,0.13 -0.188,0.035 -0.38,0.052 -0.575,0.052 -0.373,0 -0.662,-0.068 -0.867,-0.205 -0.206,-0.136 -0.31,-0.315 -0.31,-0.536 0,-0.108 0.028,-0.199 0.082,-0.273 0.054,-0.074 0.126,-0.134 0.218,-0.182 0.091,-0.048 0.199,-0.086 0.324,-0.114 0.126,-0.028 0.261,-0.053 0.404,-0.075 l 0.643,-0.097 c 0.681,-0.1 1.211,-0.298 1.593,-0.595 0.381,-0.297 0.571,-0.711 0.571,-1.245 0,-0.298 -0.063,-0.573 -0.191,-0.822 -0.128,-0.249 -0.312,-0.464 -0.553,-0.643 -0.24,-0.18 -0.537,-0.32 -0.89,-0.419 -0.353,-0.1 -0.753,-0.15 -1.2,-0.15 -0.16,0 -0.346,0.01 -0.558,0.029 -0.212,0.02 -0.438,0.059 -0.676,0.117 -0.238,0.059 -0.481,0.14 -0.728,0.244 -0.248,0.104 -0.484,0.241 -0.709,0.41 l 0.63,1.02 c 0.114,-0.087 0.236,-0.168 0.368,-0.244 0.132,-0.076 0.282,-0.143 0.449,-0.201 0.167,-0.059 0.35,-0.105 0.553,-0.14 0.201,-0.035 0.429,-0.052 0.685,-0.052 0.468,0 0.821,0.068 1.06,0.205 0.238,0.136 0.357,0.322 0.357,0.556 0,0.177 -0.087,0.323 -0.261,0.438 -0.173,0.115 -0.446,0.198 -0.818,0.251 l -0.65,0.084 c -0.694,0.095 -1.219,0.298 -1.577,0.608 -0.357,0.31 -0.536,0.716 -0.536,1.219 0,0.307 0.06,0.585 0.179,0.832 0.119,0.246 0.29,0.455 0.514,0.627 0.222,0.171 0.493,0.303 0.809,0.396 0.316,0.093 0.674,0.14 1.072,0.14 0.49,0 0.952,-0.057 1.385,-0.172 C -0.119,1.429 0.261,1.268 0.585,1.06 Z"
             style="fill:#1175bf;fill-opacity:1;fill-rule:nonzero;stroke:none"
             id="path78" />
        </g>
        <g
           id="g80"
           transform="translate(140.2373,21.2153)">
          <path
             d="m 0,0 h -2.386 v -2.71 c 0,-0.208 0.027,-0.386 0.078,-0.534 0.052,-0.147 0.122,-0.267 0.211,-0.36 0.089,-0.094 0.194,-0.162 0.313,-0.205 0.119,-0.044 0.248,-0.065 0.387,-0.065 0.211,0 0.427,0.041 0.646,0.124 0.219,0.082 0.422,0.181 0.608,0.298 l 0.539,-1.085 c -0.25,-0.169 -0.534,-0.315 -0.848,-0.436 -0.314,-0.121 -0.668,-0.182 -1.063,-0.182 -0.706,0 -1.256,0.197 -1.647,0.589 -0.393,0.392 -0.589,1.002 -0.589,1.829 V 0 h -1.241 v 1.235 h 1.241 V 3.12 h 1.365 V 1.235 H 0 Z"
             style="fill:#1175bf;fill-opacity:1;fill-rule:nonzero;stroke:none"
             id="path82" />
        </g>
        <g
           id="g84"
           transform="translate(144.6572,22.6128)">
          <path
             d="M 0,0 C 0.208,0 0.396,-0.014 0.562,-0.042 0.729,-0.071 0.891,-0.115 1.046,-0.176 L 0.722,-1.521 c -0.144,0.073 -0.311,0.13 -0.501,0.169 -0.191,0.039 -0.368,0.059 -0.533,0.059 -0.217,0 -0.417,-0.038 -0.598,-0.111 -0.182,-0.074 -0.338,-0.182 -0.468,-0.325 -0.13,-0.143 -0.232,-0.319 -0.306,-0.527 -0.074,-0.208 -0.11,-0.444 -0.11,-0.708 V -6.39 h -1.358 v 6.227 h 1.344 v -0.702 c 0.208,0.3 0.466,0.518 0.774,0.657 C -0.727,-0.069 -0.382,0 0,0"
             style="fill:#1175bf;fill-opacity:1;fill-rule:nonzero;stroke:none"
             id="path86" />
        </g>
        <path
           d="m 148.062,16.223 h -1.364 v 6.227 h 1.364 z m -0.688,9.34 c 0.134,0 0.26,-0.024 0.377,-0.074 0.117,-0.05 0.219,-0.118 0.306,-0.205 0.086,-0.087 0.154,-0.188 0.204,-0.305 0.05,-0.117 0.075,-0.243 0.075,-0.377 0,-0.135 -0.025,-0.26 -0.075,-0.377 -0.05,-0.118 -0.118,-0.218 -0.204,-0.303 -0.087,-0.084 -0.189,-0.15 -0.306,-0.198 -0.117,-0.048 -0.243,-0.071 -0.377,-0.071 -0.135,0 -0.26,0.023 -0.377,0.071 -0.117,0.048 -0.218,0.114 -0.303,0.198 -0.084,0.085 -0.15,0.185 -0.198,0.303 -0.048,0.117 -0.071,0.242 -0.071,0.377 0,0.134 0.023,0.26 0.071,0.377 0.048,0.117 0.114,0.218 0.198,0.305 0.085,0.087 0.186,0.155 0.303,0.205 0.117,0.05 0.242,0.074 0.377,0.074"
           style="fill:#1175bf;fill-opacity:1;fill-rule:nonzero;stroke:none"
           id="path88" />
        <g
           id="g90"
           transform="translate(154.0498,21.2153)">
          <path
             d="m 0,0 h -2.386 v -2.71 c 0,-0.208 0.027,-0.386 0.078,-0.534 0.052,-0.147 0.122,-0.267 0.211,-0.36 0.089,-0.094 0.194,-0.162 0.313,-0.205 0.119,-0.044 0.248,-0.065 0.387,-0.065 0.211,0 0.427,0.041 0.646,0.124 0.219,0.082 0.422,0.181 0.608,0.298 l 0.539,-1.085 c -0.25,-0.169 -0.534,-0.315 -0.848,-0.436 -0.314,-0.121 -0.668,-0.182 -1.063,-0.182 -0.706,0 -1.256,0.197 -1.647,0.589 -0.393,0.392 -0.589,1.002 -0.589,1.829 V 0 h -1.241 v 1.235 h 1.241 V 3.12 h 1.365 V 1.235 H 0 Z"
             style="fill:#1175bf;fill-opacity:1;fill-rule:nonzero;stroke:none"
             id="path92" />
        </g>
        <g
           id="g94"
           transform="translate(157.9434,21.4038)">
          <path
             d="M 0,0 C -0.243,0 -0.459,-0.037 -0.647,-0.111 -0.836,-0.185 -0.998,-0.29 -1.135,-0.426 -1.271,-0.562 -1.383,-0.725 -1.47,-0.914 -1.556,-1.102 -1.617,-1.309 -1.651,-1.534 h 3.23 C 1.506,-1.049 1.332,-0.672 1.06,-0.403 0.786,-0.135 0.433,0 0,0 M 0.025,1.209 C 0.459,1.209 0.856,1.13 1.219,0.972 1.58,0.813 1.89,0.59 2.147,0.302 2.405,0.014 2.607,-0.331 2.752,-0.731 2.897,-1.132 2.97,-1.575 2.97,-2.061 2.97,-2.147 2.968,-2.234 2.964,-2.321 2.959,-2.407 2.953,-2.49 2.944,-2.568 h -4.602 c 0.044,-0.282 0.124,-0.522 0.241,-0.721 0.116,-0.2 0.258,-0.363 0.422,-0.491 0.165,-0.128 0.349,-0.222 0.553,-0.282 0.204,-0.062 0.416,-0.092 0.636,-0.092 0.313,0 0.625,0.058 0.94,0.173 0.314,0.114 0.601,0.276 0.861,0.484 L 2.671,-4.466 C 2.29,-4.791 1.886,-5.018 1.459,-5.148 1.032,-5.278 0.582,-5.343 0.11,-5.343 c -0.467,0 -0.897,0.078 -1.287,0.234 -0.389,0.156 -0.725,0.377 -1.008,0.663 -0.281,0.286 -0.5,0.631 -0.656,1.033 -0.156,0.403 -0.234,0.852 -0.234,1.346 0,0.485 0.076,0.929 0.227,1.332 0.153,0.403 0.365,0.749 0.638,1.037 0.273,0.288 0.599,0.511 0.978,0.67 0.379,0.158 0.798,0.237 1.257,0.237"
             style="fill:#1175bf;fill-opacity:1;fill-rule:nonzero;stroke:none"
             id="path96" />
        </g>
        <g
           id="g98"
           transform="translate(33.1255,2.7236)">
          <path
             d="M 0,0 H -1.326 L -6.402,6.584 -6.409,0 h -1.469 v 9.1 h 1.326 L -1.469,2.516 V 9.1 H 0 Z"
             style="fill:#1175bf;fill-opacity:1;fill-rule:nonzero;stroke:none"
             id="path100" />
        </g>
        <g
           id="g102"
           transform="translate(37.9355,7.833)">
          <path
             d="m 0,0 c -0.277,0 -0.535,-0.049 -0.773,-0.146 -0.239,-0.098 -0.445,-0.235 -0.618,-0.411 -0.173,-0.174 -0.31,-0.384 -0.409,-0.63 -0.1,-0.245 -0.15,-0.514 -0.15,-0.809 0,-0.295 0.05,-0.565 0.15,-0.809 0.099,-0.245 0.236,-0.455 0.409,-0.631 0.173,-0.175 0.379,-0.312 0.618,-0.41 0.238,-0.096 0.496,-0.145 0.773,-0.145 0.277,0 0.535,0.049 0.773,0.145 0.239,0.098 0.446,0.235 0.622,0.41 0.175,0.176 0.313,0.386 0.412,0.631 0.1,0.244 0.15,0.514 0.15,0.809 0,0.295 -0.05,0.564 -0.15,0.809 C 1.708,-0.941 1.57,-0.731 1.395,-0.557 1.219,-0.381 1.012,-0.244 0.773,-0.146 0.535,-0.049 0.277,0 0,0 m -2.411,3.106 c 0.221,0.248 0.453,0.431 0.695,0.55 0.243,0.119 0.531,0.178 0.864,0.178 0.222,0 0.416,-0.021 0.586,-0.067 C -0.097,3.721 0.053,3.67 0.186,3.613 0.317,3.557 0.439,3.506 0.549,3.461 0.66,3.416 0.767,3.393 0.871,3.393 c 0.143,0 0.281,0.035 0.413,0.107 0.132,0.071 0.28,0.176 0.445,0.314 L 2.431,2.951 C 2.21,2.703 1.979,2.521 1.736,2.401 1.493,2.282 1.205,2.223 0.871,2.223 0.654,2.223 0.463,2.246 0.296,2.291 0.129,2.336 -0.021,2.387 -0.153,2.443 -0.285,2.5 -0.407,2.551 -0.52,2.596 -0.633,2.643 -0.743,2.664 -0.852,2.664 -0.994,2.664 -1.132,2.629 -1.264,2.558 -1.396,2.486 -1.545,2.381 -1.709,2.242 Z M 0,1.28 C 0.481,1.28 0.926,1.197 1.336,1.029 1.746,0.863 2.1,0.633 2.398,0.341 c 0.3,-0.292 0.534,-0.638 0.703,-1.036 0.169,-0.4 0.253,-0.832 0.253,-1.301 0,-0.468 -0.084,-0.901 -0.253,-1.3 C 2.932,-3.695 2.698,-4.04 2.398,-4.332 2.1,-4.625 1.746,-4.855 1.336,-5.021 0.926,-5.188 0.481,-5.271 0,-5.271 c -0.481,0 -0.926,0.083 -1.335,0.25 -0.41,0.166 -0.763,0.396 -1.06,0.689 -0.297,0.292 -0.53,0.637 -0.699,1.036 -0.169,0.399 -0.253,0.832 -0.253,1.3 0,0.469 0.084,0.901 0.253,1.301 0.169,0.398 0.402,0.744 0.699,1.036 0.297,0.292 0.65,0.522 1.06,0.688 C -0.926,1.197 -0.481,1.28 0,1.28"
             style="fill:#1175bf;fill-opacity:1;fill-rule:nonzero;stroke:none"
             id="path104" />
        </g>
        <g
           id="g106"
           transform="translate(48.29,5.3623)">
          <path
             d="m 0,0 c 0,-0.494 -0.083,-0.918 -0.247,-1.273 -0.165,-0.356 -0.381,-0.647 -0.65,-0.872 -0.269,-0.225 -0.576,-0.39 -0.923,-0.497 -0.347,-0.106 -0.702,-0.159 -1.066,-0.159 -0.364,0 -0.719,0.053 -1.066,0.159 -0.347,0.107 -0.655,0.272 -0.926,0.497 -0.271,0.225 -0.488,0.516 -0.65,0.872 -0.163,0.355 -0.244,0.779 -0.244,1.273 v 3.588 h 1.365 V 0.124 c 0,-0.3 0.039,-0.554 0.117,-0.765 0.078,-0.209 0.186,-0.379 0.322,-0.509 0.136,-0.13 0.298,-0.225 0.484,-0.284 0.186,-0.057 0.386,-0.087 0.598,-0.087 0.212,0 0.412,0.03 0.598,0.087 0.186,0.059 0.348,0.154 0.484,0.284 0.137,0.13 0.244,0.3 0.322,0.509 0.078,0.211 0.117,0.465 0.117,0.765 V 3.588 H 0 Z"
             style="fill:#1175bf;fill-opacity:1;fill-rule:nonzero;stroke:none"
             id="path108" />
        </g>
        <g
           id="g110"
           transform="translate(51.332,6.585)">
          <path
             d="m 0,0 h 0.682 l 2.054,2.365 h 1.71 L 1.839,-0.566 4.472,-3.861 H 2.75 L 0.676,-1.235 H 0 V -3.861 H -1.365 V 5.498 H 0 Z"
             style="fill:#1175bf;fill-opacity:1;fill-rule:nonzero;stroke:none"
             id="path112" />
        </g>
        <g
           id="g114"
           transform="translate(59.5283,7.833)">
          <path
             d="m 0,0 c -0.277,0 -0.535,-0.049 -0.773,-0.146 -0.239,-0.098 -0.445,-0.235 -0.618,-0.411 -0.173,-0.174 -0.31,-0.384 -0.409,-0.63 -0.1,-0.245 -0.15,-0.514 -0.15,-0.809 0,-0.295 0.05,-0.565 0.15,-0.809 0.099,-0.245 0.236,-0.455 0.409,-0.631 0.173,-0.175 0.379,-0.312 0.618,-0.41 0.238,-0.096 0.496,-0.145 0.773,-0.145 0.277,0 0.535,0.049 0.773,0.145 0.239,0.098 0.446,0.235 0.622,0.41 0.175,0.176 0.313,0.386 0.412,0.631 0.1,0.244 0.15,0.514 0.15,0.809 0,0.295 -0.05,0.564 -0.15,0.809 C 1.708,-0.941 1.57,-0.731 1.395,-0.557 1.219,-0.381 1.012,-0.244 0.773,-0.146 0.535,-0.049 0.277,0 0,0 M 0,1.28 C 0.481,1.28 0.926,1.197 1.336,1.029 1.746,0.863 2.1,0.633 2.398,0.341 c 0.3,-0.292 0.534,-0.638 0.703,-1.036 0.169,-0.4 0.253,-0.832 0.253,-1.301 0,-0.468 -0.084,-0.901 -0.253,-1.3 C 2.932,-3.695 2.698,-4.04 2.398,-4.332 2.1,-4.625 1.746,-4.855 1.336,-5.021 0.926,-5.188 0.481,-5.271 0,-5.271 c -0.481,0 -0.926,0.083 -1.335,0.25 -0.41,0.166 -0.763,0.396 -1.06,0.689 -0.297,0.292 -0.53,0.637 -0.699,1.036 -0.169,0.399 -0.253,0.832 -0.253,1.3 0,0.469 0.084,0.901 0.253,1.301 0.169,0.398 0.402,0.744 0.699,1.036 0.297,0.292 0.65,0.522 1.06,0.688 C -0.926,1.197 -0.481,1.28 0,1.28"
             style="fill:#1175bf;fill-opacity:1;fill-rule:nonzero;stroke:none"
             id="path116" />
        </g>
        <g
           id="g118"
           transform="translate(66.9639,7.833)">
          <path
             d="m 0,0 c -0.286,0 -0.543,-0.051 -0.77,-0.153 -0.228,-0.102 -0.42,-0.241 -0.579,-0.416 -0.158,-0.175 -0.279,-0.38 -0.364,-0.615 -0.084,-0.234 -0.126,-0.482 -0.126,-0.747 0,-0.26 0.042,-0.507 0.126,-0.741 0.085,-0.234 0.206,-0.439 0.364,-0.614 0.159,-0.175 0.351,-0.316 0.579,-0.419 0.227,-0.105 0.484,-0.156 0.77,-0.156 0.273,0 0.523,0.049 0.751,0.149 0.227,0.1 0.421,0.235 0.582,0.406 0.16,0.171 0.284,0.375 0.373,0.611 0.089,0.236 0.133,0.491 0.133,0.764 0,0.273 -0.044,0.528 -0.133,0.764 -0.089,0.235 -0.213,0.439 -0.373,0.61 C 1.172,-0.385 0.978,-0.25 0.751,-0.15 0.523,-0.051 0.273,0 0,0 M -0.351,1.28 C 0.104,1.28 0.505,1.203 0.852,1.049 1.198,0.896 1.488,0.669 1.723,0.37 v 0.747 h 1.364 v -5.791 c 0,-0.489 -0.076,-0.93 -0.23,-1.319 C 2.703,-6.384 2.483,-6.715 2.197,-6.988 1.911,-7.261 1.561,-7.47 1.147,-7.615 c -0.414,-0.146 -0.88,-0.218 -1.4,-0.218 -0.234,0 -0.471,0.016 -0.709,0.046 -0.238,0.03 -0.471,0.077 -0.699,0.14 -0.227,0.062 -0.443,0.138 -0.647,0.227 -0.203,0.089 -0.387,0.191 -0.552,0.309 l 0.494,1.15 c 0.316,-0.195 0.652,-0.349 1.008,-0.462 0.355,-0.112 0.723,-0.169 1.105,-0.169 0.641,0 1.13,0.165 1.468,0.494 0.339,0.33 0.508,0.785 0.508,1.366 v 0.5 C 1.488,-4.531 1.198,-4.758 0.852,-4.911 0.505,-5.064 0.104,-5.142 -0.351,-5.142 c -0.356,0 -0.705,0.073 -1.05,0.218 -0.344,0.145 -0.653,0.356 -0.926,0.631 -0.273,0.274 -0.493,0.611 -0.66,1.01 -0.167,0.398 -0.25,0.849 -0.25,1.352 0,0.503 0.083,0.953 0.25,1.352 0.167,0.399 0.387,0.735 0.66,1.011 0.273,0.275 0.582,0.485 0.926,0.63 0.345,0.145 0.694,0.218 1.05,0.218"
             style="fill:#1175bf;fill-opacity:1;fill-rule:nonzero;stroke:none"
             id="path120" />
        </g>
        <g
           id="g122"
           transform="translate(77.5005,5.3623)">
          <path
             d="m 0,0 c 0,-0.494 -0.083,-0.918 -0.247,-1.273 -0.165,-0.356 -0.381,-0.647 -0.65,-0.872 -0.269,-0.225 -0.576,-0.39 -0.923,-0.497 -0.347,-0.106 -0.702,-0.159 -1.066,-0.159 -0.364,0 -0.719,0.053 -1.066,0.159 -0.347,0.107 -0.655,0.272 -0.926,0.497 -0.271,0.225 -0.488,0.516 -0.65,0.872 -0.163,0.355 -0.244,0.779 -0.244,1.273 v 3.588 h 1.365 V 0.124 c 0,-0.3 0.039,-0.554 0.117,-0.765 0.078,-0.209 0.186,-0.379 0.322,-0.509 0.136,-0.13 0.298,-0.225 0.484,-0.284 0.186,-0.057 0.386,-0.087 0.598,-0.087 0.212,0 0.412,0.03 0.598,0.087 0.186,0.059 0.348,0.154 0.484,0.284 0.137,0.13 0.244,0.3 0.322,0.509 0.078,0.211 0.117,0.465 0.117,0.765 V 3.588 H 0 Z"
             style="fill:#1175bf;fill-opacity:1;fill-rule:nonzero;stroke:none"
             id="path124" />
        </g>
        <g
           id="g126"
           transform="translate(84.9233,7.9043)">
          <path
             d="m 0,0 c -0.243,0 -0.458,-0.037 -0.646,-0.11 -0.189,-0.075 -0.352,-0.18 -0.488,-0.316 -0.137,-0.136 -0.248,-0.3 -0.335,-0.487 -0.087,-0.19 -0.147,-0.397 -0.182,-0.621 H 1.58 C 1.506,-1.049 1.333,-0.672 1.06,-0.403 0.787,-0.135 0.434,0 0,0 M 0.026,1.209 C 0.459,1.209 0.857,1.13 1.219,0.972 1.581,0.813 1.891,0.591 2.148,0.302 2.406,0.014 2.607,-0.331 2.753,-0.731 2.898,-1.132 2.971,-1.575 2.971,-2.061 2.971,-2.147 2.968,-2.233 2.964,-2.321 2.96,-2.407 2.953,-2.489 2.945,-2.567 h -4.602 c 0.043,-0.283 0.123,-0.523 0.24,-0.722 0.117,-0.2 0.258,-0.363 0.422,-0.491 0.165,-0.127 0.349,-0.222 0.553,-0.282 0.204,-0.062 0.416,-0.091 0.637,-0.091 0.312,0 0.625,0.056 0.939,0.172 0.315,0.115 0.602,0.276 0.862,0.484 L 2.671,-4.466 C 2.29,-4.79 1.886,-5.019 1.459,-5.147 1.033,-5.278 0.583,-5.343 0.111,-5.343 c -0.468,0 -0.898,0.077 -1.287,0.234 -0.39,0.156 -0.726,0.378 -1.008,0.663 -0.282,0.286 -0.501,0.631 -0.656,1.033 -0.157,0.403 -0.234,0.851 -0.234,1.346 0,0.485 0.075,0.929 0.227,1.332 0.152,0.404 0.364,0.749 0.637,1.037 0.273,0.289 0.599,0.511 0.979,0.67 0.378,0.158 0.798,0.237 1.257,0.237"
             style="fill:#1175bf;fill-opacity:1;fill-rule:nonzero;stroke:none"
             id="path128" />
        </g>
        <g
           id="g130"
           transform="translate(93.4253,7.3906)">
          <path
             d="m 0,0 c -0.096,0.056 -0.212,0.116 -0.351,0.179 -0.139,0.062 -0.293,0.12 -0.461,0.172 -0.17,0.052 -0.349,0.095 -0.537,0.13 -0.189,0.035 -0.38,0.052 -0.575,0.052 -0.373,0 -0.662,-0.068 -0.868,-0.205 -0.206,-0.136 -0.309,-0.315 -0.309,-0.536 0,-0.108 0.027,-0.199 0.081,-0.273 0.055,-0.074 0.127,-0.134 0.218,-0.182 0.091,-0.048 0.199,-0.086 0.325,-0.113 0.126,-0.03 0.26,-0.054 0.403,-0.076 l 0.644,-0.097 c 0.68,-0.1 1.211,-0.298 1.592,-0.595 0.381,-0.297 0.572,-0.711 0.572,-1.244 0,-0.299 -0.064,-0.574 -0.192,-0.822 -0.127,-0.25 -0.312,-0.465 -0.552,-0.645 -0.24,-0.18 -0.537,-0.318 -0.89,-0.419 -0.354,-0.099 -0.753,-0.149 -1.2,-0.149 -0.16,0 -0.346,0.01 -0.559,0.029 -0.212,0.02 -0.437,0.059 -0.675,0.117 -0.239,0.059 -0.482,0.14 -0.728,0.244 -0.248,0.104 -0.484,0.241 -0.709,0.41 l 0.63,1.02 c 0.113,-0.087 0.235,-0.168 0.368,-0.244 0.132,-0.076 0.281,-0.143 0.448,-0.201 0.167,-0.059 0.351,-0.106 0.553,-0.14 0.201,-0.034 0.43,-0.052 0.685,-0.052 0.468,0 0.821,0.069 1.06,0.205 0.238,0.136 0.357,0.322 0.357,0.555 0,0.178 -0.086,0.324 -0.26,0.44 -0.173,0.114 -0.446,0.197 -0.819,0.25 l -0.65,0.084 c -0.693,0.095 -1.219,0.298 -1.576,0.608 -0.358,0.31 -0.536,0.716 -0.536,1.219 0,0.307 0.059,0.585 0.178,0.832 0.12,0.247 0.291,0.456 0.514,0.627 0.223,0.171 0.493,0.303 0.809,0.396 0.317,0.093 0.674,0.14 1.073,0.14 0.489,0 0.951,-0.057 1.384,-0.172 C -0.12,1.429 0.26,1.268 0.585,1.06 Z"
             style="fill:#1175bf;fill-opacity:1;fill-rule:nonzero;stroke:none"
             id="path132" />
        </g>
        <path
           d="m 96.734,2.724 h -1.365 v 6.227 h 1.365 z m -0.689,9.339 c 0.134,0 0.26,-0.024 0.377,-0.074 0.117,-0.05 0.219,-0.118 0.305,-0.205 0.087,-0.086 0.155,-0.187 0.205,-0.305 0.05,-0.117 0.075,-0.243 0.075,-0.376 0,-0.135 -0.025,-0.26 -0.075,-0.377 -0.05,-0.118 -0.118,-0.219 -0.205,-0.303 -0.086,-0.084 -0.188,-0.151 -0.305,-0.198 -0.117,-0.048 -0.243,-0.072 -0.377,-0.072 -0.135,0 -0.26,0.024 -0.377,0.072 -0.117,0.047 -0.218,0.114 -0.302,0.198 -0.085,0.084 -0.151,0.185 -0.199,0.303 -0.047,0.117 -0.071,0.242 -0.071,0.377 0,0.133 0.024,0.259 0.071,0.376 0.048,0.118 0.114,0.219 0.199,0.305 0.084,0.087 0.185,0.155 0.302,0.205 0.117,0.05 0.242,0.074 0.377,0.074"
           style="fill:#1175bf;fill-opacity:1;fill-rule:nonzero;stroke:none"
           id="path134" />
        <g
           id="g136"
           transform="translate(101.7388,9.1133)">
          <path
             d="m 0,0 c 0.368,0 0.708,-0.062 1.017,-0.183 0.31,-0.121 0.578,-0.291 0.803,-0.509 0.225,-0.219 0.4,-0.481 0.523,-0.784 0.123,-0.302 0.186,-0.636 0.186,-1.001 V -6.39 H 1.164 v 3.465 c 0,0.524 -0.127,0.927 -0.381,1.209 -0.253,0.281 -0.61,0.422 -1.069,0.422 -0.221,0 -0.429,-0.035 -0.624,-0.107 -0.195,-0.071 -0.365,-0.176 -0.51,-0.315 -0.145,-0.138 -0.262,-0.311 -0.348,-0.517 -0.087,-0.205 -0.13,-0.441 -0.13,-0.705 V -6.39 h -1.365 v 6.227 h 1.352 v -0.76 c 0.125,0.182 0.265,0.332 0.419,0.451 0.154,0.119 0.315,0.214 0.484,0.284 0.17,0.069 0.34,0.117 0.51,0.146 C -0.326,-0.015 -0.161,0 0,0"
             style="fill:#1175bf;fill-opacity:1;fill-rule:nonzero;stroke:none"
             id="path138" />
        </g>
        <g
           id="g140"
           transform="translate(108.7715,7.833)">
          <path
             d="m 0,0 c -0.295,0 -0.558,-0.054 -0.79,-0.16 -0.231,-0.106 -0.428,-0.248 -0.588,-0.429 -0.16,-0.18 -0.284,-0.391 -0.371,-0.634 -0.086,-0.242 -0.13,-0.5 -0.13,-0.773 0,-0.274 0.044,-0.531 0.13,-0.774 0.087,-0.242 0.211,-0.453 0.371,-0.633 0.16,-0.18 0.357,-0.324 0.588,-0.429 0.232,-0.106 0.495,-0.159 0.79,-0.159 0.281,0 0.537,0.051 0.767,0.152 0.229,0.103 0.426,0.241 0.591,0.419 0.165,0.178 0.293,0.389 0.384,0.631 0.091,0.242 0.137,0.508 0.137,0.793 0,0.286 -0.046,0.551 -0.137,0.793 C 1.651,-0.961 1.523,-0.75 1.358,-0.572 1.193,-0.395 0.996,-0.255 0.767,-0.153 0.537,-0.051 0.281,0 0,0 M -0.162,1.28 C 0.284,1.28 0.667,1.197 0.988,1.029 1.309,0.863 1.577,0.641 1.794,0.363 V 4.25 H 3.152 V -5.109 H 1.794 v 0.748 C 1.577,-4.639 1.309,-4.86 0.988,-5.025 0.667,-5.189 0.284,-5.271 -0.162,-5.271 c -0.439,0 -0.846,0.081 -1.223,0.243 -0.377,0.163 -0.706,0.389 -0.987,0.679 -0.282,0.29 -0.503,0.636 -0.663,1.036 -0.161,0.402 -0.241,0.84 -0.241,1.317 0,0.476 0.08,0.916 0.241,1.316 0.16,0.401 0.381,0.746 0.663,1.037 0.281,0.29 0.61,0.517 0.987,0.679 0.377,0.163 0.784,0.244 1.223,0.244"
             style="fill:#1175bf;fill-opacity:1;fill-rule:nonzero;stroke:none"
             id="path142" />
        </g>
        <g
           id="g144"
           transform="translate(119.373,5.3623)">
          <path
             d="m 0,0 c 0,-0.494 -0.083,-0.918 -0.247,-1.273 -0.165,-0.356 -0.382,-0.647 -0.65,-0.872 -0.269,-0.225 -0.577,-0.39 -0.923,-0.497 -0.347,-0.106 -0.702,-0.159 -1.067,-0.159 -0.363,0 -0.718,0.053 -1.065,0.159 -0.347,0.107 -0.656,0.272 -0.927,0.497 -0.27,0.225 -0.487,0.516 -0.649,0.872 -0.163,0.355 -0.244,0.779 -0.244,1.273 v 3.588 h 1.365 V 0.124 c 0,-0.3 0.039,-0.554 0.117,-0.765 0.077,-0.209 0.185,-0.379 0.321,-0.509 0.137,-0.13 0.298,-0.225 0.485,-0.284 0.186,-0.057 0.385,-0.087 0.597,-0.087 0.213,0 0.412,0.03 0.599,0.087 0.185,0.059 0.348,0.154 0.484,0.284 0.136,0.13 0.243,0.3 0.322,0.509 0.078,0.211 0.117,0.465 0.117,0.765 V 3.588 H 0 Z"
             style="fill:#1175bf;fill-opacity:1;fill-rule:nonzero;stroke:none"
             id="path146" />
        </g>
        <g
           id="g148"
           transform="translate(125.2871,7.3906)">
          <path
             d="m 0,0 c -0.095,0.056 -0.212,0.116 -0.351,0.179 -0.138,0.062 -0.293,0.12 -0.461,0.172 -0.169,0.052 -0.348,0.095 -0.537,0.13 -0.188,0.035 -0.38,0.052 -0.575,0.052 -0.373,0 -0.662,-0.068 -0.867,-0.205 -0.206,-0.136 -0.31,-0.315 -0.31,-0.536 0,-0.108 0.028,-0.199 0.082,-0.273 0.054,-0.074 0.126,-0.134 0.218,-0.182 0.091,-0.048 0.199,-0.086 0.324,-0.113 0.126,-0.03 0.261,-0.054 0.404,-0.076 l 0.643,-0.097 c 0.681,-0.1 1.211,-0.298 1.593,-0.595 0.381,-0.297 0.571,-0.711 0.571,-1.244 0,-0.299 -0.063,-0.574 -0.191,-0.822 -0.128,-0.25 -0.312,-0.465 -0.553,-0.645 -0.24,-0.18 -0.537,-0.318 -0.89,-0.419 -0.353,-0.099 -0.753,-0.149 -1.2,-0.149 -0.16,0 -0.346,0.01 -0.558,0.029 -0.212,0.02 -0.438,0.059 -0.676,0.117 -0.238,0.059 -0.481,0.14 -0.728,0.244 -0.248,0.104 -0.484,0.241 -0.709,0.41 l 0.63,1.02 c 0.114,-0.087 0.236,-0.168 0.368,-0.244 0.132,-0.076 0.282,-0.143 0.449,-0.201 0.167,-0.059 0.35,-0.106 0.553,-0.14 0.201,-0.034 0.429,-0.052 0.685,-0.052 0.468,0 0.821,0.069 1.06,0.205 0.238,0.136 0.357,0.322 0.357,0.555 0,0.178 -0.087,0.324 -0.261,0.44 -0.173,0.114 -0.446,0.197 -0.818,0.25 l -0.65,0.084 c -0.694,0.095 -1.219,0.298 -1.577,0.608 -0.357,0.31 -0.536,0.716 -0.536,1.219 0,0.307 0.06,0.585 0.179,0.832 0.119,0.247 0.29,0.456 0.514,0.627 0.222,0.171 0.493,0.303 0.809,0.396 0.316,0.093 0.674,0.14 1.072,0.14 0.49,0 0.952,-0.057 1.385,-0.172 C -0.119,1.429 0.261,1.268 0.585,1.06 Z"
             style="fill:#1175bf;fill-opacity:1;fill-rule:nonzero;stroke:none"
             id="path150" />
        </g>
        <g
           id="g152"
           transform="translate(137.1562,2.7236)">
          <path
             d="m 0,0 h -6.636 v 9.1 h 6.552 V 7.723 H -5.167 V 5.271 H -0.26 V 3.894 H -5.167 V 1.378 H 0 Z"
             style="fill:#1175bf;fill-opacity:1;fill-rule:nonzero;stroke:none"
             id="path154" />
        </g>
        <g
           id="g156"
           transform="translate(141.4473,7.9043)">
          <path
             d="m 0,0 c -0.243,0 -0.459,-0.037 -0.647,-0.11 -0.189,-0.075 -0.351,-0.18 -0.488,-0.316 -0.136,-0.136 -0.248,-0.3 -0.335,-0.487 -0.086,-0.19 -0.147,-0.397 -0.181,-0.621 h 3.23 C 1.506,-1.049 1.332,-0.672 1.06,-0.403 0.786,-0.135 0.433,0 0,0 M 0.025,1.209 C 0.459,1.209 0.856,1.13 1.219,0.972 1.58,0.813 1.89,0.591 2.147,0.302 2.405,0.014 2.607,-0.331 2.752,-0.731 2.897,-1.132 2.97,-1.575 2.97,-2.061 2.97,-2.147 2.968,-2.233 2.964,-2.321 2.959,-2.407 2.953,-2.489 2.944,-2.567 h -4.602 c 0.044,-0.283 0.124,-0.523 0.241,-0.722 0.116,-0.2 0.258,-0.363 0.422,-0.491 0.165,-0.127 0.349,-0.222 0.553,-0.282 0.204,-0.062 0.416,-0.091 0.636,-0.091 0.313,0 0.625,0.056 0.94,0.172 0.314,0.115 0.601,0.276 0.861,0.484 L 2.671,-4.466 C 2.29,-4.79 1.886,-5.019 1.459,-5.147 1.032,-5.278 0.582,-5.343 0.11,-5.343 c -0.467,0 -0.897,0.077 -1.287,0.234 -0.389,0.156 -0.725,0.378 -1.008,0.663 -0.281,0.286 -0.5,0.631 -0.656,1.033 -0.156,0.403 -0.234,0.851 -0.234,1.346 0,0.485 0.076,0.929 0.227,1.332 0.153,0.404 0.365,0.749 0.638,1.037 0.273,0.289 0.599,0.511 0.978,0.67 0.379,0.158 0.798,0.237 1.257,0.237"
             style="fill:#1175bf;fill-opacity:1;fill-rule:nonzero;stroke:none"
             id="path158" />
        </g>
        <g
           id="g160"
           transform="translate(149.9482,7.3906)">
          <path
             d="m 0,0 c -0.095,0.056 -0.212,0.116 -0.351,0.179 -0.138,0.062 -0.293,0.12 -0.461,0.172 -0.169,0.052 -0.348,0.095 -0.537,0.13 -0.188,0.035 -0.38,0.052 -0.575,0.052 -0.373,0 -0.662,-0.068 -0.867,-0.205 -0.206,-0.136 -0.31,-0.315 -0.31,-0.536 0,-0.108 0.028,-0.199 0.082,-0.273 0.054,-0.074 0.126,-0.134 0.218,-0.182 0.091,-0.048 0.199,-0.086 0.324,-0.113 0.126,-0.03 0.261,-0.054 0.404,-0.076 l 0.643,-0.097 c 0.681,-0.1 1.211,-0.298 1.593,-0.595 0.381,-0.297 0.571,-0.711 0.571,-1.244 0,-0.299 -0.063,-0.574 -0.191,-0.822 -0.128,-0.25 -0.312,-0.465 -0.553,-0.645 -0.24,-0.18 -0.537,-0.318 -0.89,-0.419 -0.353,-0.099 -0.753,-0.149 -1.2,-0.149 -0.16,0 -0.346,0.01 -0.558,0.029 -0.212,0.02 -0.438,0.059 -0.676,0.117 -0.238,0.059 -0.481,0.14 -0.728,0.244 -0.248,0.104 -0.484,0.241 -0.709,0.41 l 0.63,1.02 c 0.114,-0.087 0.236,-0.168 0.368,-0.244 0.132,-0.076 0.282,-0.143 0.449,-0.201 0.167,-0.059 0.35,-0.106 0.553,-0.14 0.201,-0.034 0.429,-0.052 0.685,-0.052 0.468,0 0.821,0.069 1.06,0.205 0.238,0.136 0.357,0.322 0.357,0.555 0,0.178 -0.087,0.324 -0.261,0.44 -0.173,0.114 -0.446,0.197 -0.818,0.25 l -0.65,0.084 c -0.694,0.095 -1.219,0.298 -1.577,0.608 -0.357,0.31 -0.536,0.716 -0.536,1.219 0,0.307 0.06,0.585 0.179,0.832 0.119,0.247 0.29,0.456 0.514,0.627 0.222,0.171 0.493,0.303 0.809,0.396 0.316,0.093 0.674,0.14 1.072,0.14 0.49,0 0.952,-0.057 1.385,-0.172 C -0.119,1.429 0.261,1.268 0.585,1.06 Z"
             style="fill:#1175bf;fill-opacity:1;fill-rule:nonzero;stroke:none"
             id="path162" />
        </g>
        <g
           id="g164"
           transform="translate(156.1367,7.7158)">
          <path
             d="m 0,0 h -2.386 v -2.711 c 0,-0.207 0.027,-0.385 0.078,-0.533 0.052,-0.147 0.122,-0.268 0.211,-0.36 0.089,-0.093 0.194,-0.162 0.313,-0.205 0.119,-0.044 0.248,-0.065 0.387,-0.065 0.211,0 0.427,0.041 0.646,0.124 0.219,0.082 0.422,0.182 0.608,0.299 l 0.539,-1.086 c -0.25,-0.169 -0.534,-0.315 -0.848,-0.436 -0.314,-0.121 -0.668,-0.181 -1.063,-0.181 -0.706,0 -1.256,0.195 -1.647,0.588 -0.393,0.392 -0.589,1.002 -0.589,1.83 V 0 h -1.241 v 1.234 h 1.241 v 1.885 h 1.365 V 1.234 H 0 Z"
             style="fill:#1175bf;fill-opacity:1;fill-rule:nonzero;stroke:none"
             id="path166" />
        </g>
        <path
           d="m 158.769,2.724 h -1.364 v 6.227 h 1.364 z m -0.689,9.339 c 0.134,0 0.26,-0.024 0.377,-0.074 0.117,-0.05 0.219,-0.118 0.306,-0.205 0.086,-0.086 0.154,-0.187 0.204,-0.305 0.05,-0.117 0.075,-0.243 0.075,-0.376 0,-0.135 -0.025,-0.26 -0.075,-0.377 -0.05,-0.118 -0.118,-0.219 -0.204,-0.303 -0.087,-0.084 -0.189,-0.151 -0.306,-0.198 -0.117,-0.048 -0.243,-0.072 -0.377,-0.072 -0.135,0 -0.26,0.024 -0.377,0.072 -0.117,0.047 -0.218,0.114 -0.303,0.198 -0.084,0.084 -0.15,0.185 -0.198,0.303 -0.048,0.117 -0.071,0.242 -0.071,0.377 0,0.133 0.023,0.259 0.071,0.376 0.048,0.118 0.114,0.219 0.198,0.305 0.085,0.087 0.186,0.155 0.303,0.205 0.117,0.05 0.242,0.074 0.377,0.074"
           style="fill:#1175bf;fill-opacity:1;fill-rule:nonzero;stroke:none"
           id="path168" />
        <g
           id="g170"
           transform="translate(164.748,7.3906)">
          <path
             d="m 0,0 c -0.095,0.056 -0.212,0.116 -0.351,0.179 -0.138,0.062 -0.293,0.12 -0.461,0.172 -0.169,0.052 -0.348,0.095 -0.537,0.13 -0.188,0.035 -0.38,0.052 -0.575,0.052 -0.373,0 -0.662,-0.068 -0.867,-0.205 -0.206,-0.136 -0.31,-0.315 -0.31,-0.536 0,-0.108 0.028,-0.199 0.082,-0.273 0.054,-0.074 0.126,-0.134 0.218,-0.182 0.091,-0.048 0.199,-0.086 0.324,-0.113 0.126,-0.03 0.261,-0.054 0.404,-0.076 l 0.643,-0.097 c 0.681,-0.1 1.211,-0.298 1.593,-0.595 0.381,-0.297 0.571,-0.711 0.571,-1.244 0,-0.299 -0.063,-0.574 -0.191,-0.822 -0.128,-0.25 -0.312,-0.465 -0.553,-0.645 -0.24,-0.18 -0.537,-0.318 -0.89,-0.419 -0.353,-0.099 -0.753,-0.149 -1.2,-0.149 -0.16,0 -0.346,0.01 -0.558,0.029 -0.212,0.02 -0.438,0.059 -0.676,0.117 -0.238,0.059 -0.481,0.14 -0.728,0.244 -0.248,0.104 -0.484,0.241 -0.709,0.41 l 0.63,1.02 c 0.114,-0.087 0.236,-0.168 0.368,-0.244 0.132,-0.076 0.282,-0.143 0.449,-0.201 0.167,-0.059 0.35,-0.106 0.553,-0.14 0.201,-0.034 0.429,-0.052 0.685,-0.052 0.468,0 0.821,0.069 1.06,0.205 0.238,0.136 0.357,0.322 0.357,0.555 0,0.178 -0.087,0.324 -0.261,0.44 -0.173,0.114 -0.446,0.197 -0.818,0.25 l -0.65,0.084 c -0.694,0.095 -1.219,0.298 -1.577,0.608 -0.357,0.31 -0.536,0.716 -0.536,1.219 0,0.307 0.06,0.585 0.179,0.832 0.119,0.247 0.29,0.456 0.514,0.627 0.222,0.171 0.493,0.303 0.809,0.396 0.316,0.093 0.674,0.14 1.072,0.14 0.49,0 0.952,-0.057 1.385,-0.172 C -0.119,1.429 0.261,1.268 0.585,1.06 Z"
             style="fill:#1175bf;fill-opacity:1;fill-rule:nonzero;stroke:none"
             id="path172" />
        </g>
      </g>
    </g>
  </g>
</svg>
