<svg xmlns="http://www.w3.org/2000/svg" width="103.369" height="99.748" viewBox="0 0 103.369 99.748">
  <path id="Harjuta_digiallkirjastamist_ikoon_kastis" data-name="Harjuta digiallkirjastamist ikoon kastis" d="M11012.736-3957.823c-.471-.3-.933-.621-1.381-.966a12.9,12.9,0,0,1-3.852,2.223,10.115,10.115,0,0,1-4.775.518l-.047-.008a14.719,14.719,0,0,1-6.737-3.147,27.536,27.536,0,0,1-7.411-8.549,28.05,28.05,0,0,1-3.434-10.87v-.014a25.623,25.623,0,0,1,1.563-11.329,25.246,25.246,0,0,1,6.348-9.448s.009-.006.012-.011a17.818,17.818,0,0,1,7.989-4.183,11.558,11.558,0,0,1,8.719,1.258,1,1,0,0,1,.325,1.375,1,1,0,0,1-1.377.326,9.722,9.722,0,0,0-7.241-1,15.779,15.779,0,0,0-7.068,3.709,23.221,23.221,0,0,0-5.836,8.691,23.576,23.576,0,0,0-1.441,10.433,26.046,26.046,0,0,0,3.187,10.093,25.6,25.6,0,0,0,6.894,7.945.179.179,0,0,1,.033.028,12.745,12.745,0,0,0,5.813,2.727,9.14,9.14,0,0,0,6.781-2.079,22.6,22.6,0,0,1-3.54-4.26,14.288,14.288,0,0,1-2.607-10c0-.011,0-.025.006-.036a7.845,7.845,0,0,1,2.641-4.795,7.64,7.64,0,0,1,5.106-1.851c.056,0,.111.008.167.017a7.671,7.671,0,0,1,6.012,5.744.107.107,0,0,1,0,.02,14.053,14.053,0,0,1-.6,8.162,19.294,19.294,0,0,1-4.149,6.926c.317.234.643.457.972.665a13.4,13.4,0,0,0,7.591,2.251,9.943,9.943,0,0,0,4.144-1.1,11.1,11.1,0,0,0,3.418-2.7,9.733,9.733,0,0,0,1.294-1.959,8.852,8.852,0,0,1,.891-5.134,1,1,0,0,1,1.06-.534,1,1,0,0,1,.824.849,9.674,9.674,0,0,1-.7,5.093,6.744,6.744,0,0,0,3.45,4.625,6.527,6.527,0,0,0,6.654-.339,15.1,15.1,0,0,0,1.605-1.313,13.344,13.344,0,0,1,2.3-1.776,4.333,4.333,0,0,1,5.7.785,1,1,0,0,1-.105,1.411,1,1,0,0,1-1.411-.106,2.334,2.334,0,0,0-3.094-.415.792.792,0,0,1-.078.047,11.483,11.483,0,0,0-1.979,1.542,16.382,16.382,0,0,1-1.834,1.489,8.525,8.525,0,0,1-8.691.445,8.653,8.653,0,0,1-3.852-4.066c-.161.22-.331.434-.512.648a12.6,12.6,0,0,1-9.024,4.517c-.14.006-.281.008-.423.008A15.49,15.49,0,0,1,11012.736-3957.823Zm-5.135-19.853a5.867,5.867,0,0,0-1.965,3.557,12.3,12.3,0,0,0,2.26,8.6c.011.017.022.031.033.047a20.376,20.376,0,0,0,3.362,4.016,17.254,17.254,0,0,0,3.81-6.312.232.232,0,0,1,.014-.042,12.052,12.052,0,0,0,.523-7.013,5.663,5.663,0,0,0-4.35-4.224h-.023A5.619,5.619,0,0,0,11007.6-3977.676Zm52.295,17.852a1,1,0,0,1-.8-.776l-3.473-16.285a.956.956,0,0,1-.006-.387l11.582-64a1.009,1.009,0,0,1,.415-.643,1,1,0,0,1,.57-.178,1.008,1.008,0,0,1,.179.017l12.434,2.257a1,1,0,0,1,.807,1.16l-11.585,64a.968.968,0,0,1-.142.362l-8.961,14.028a1,1,0,0,1-.843.461A1,1,0,0,1,11059.9-3959.824Zm-2.273-17.284,2.922,13.708,7.544-11.808,11.368-62.823-10.466-1.9Zm25.436-36.166a1,1,0,0,1-.808-1.16l4.136-23.081a1,1,0,0,1,1.16-.81,1,1,0,0,1,.807,1.16l-4.135,23.081a1,1,0,0,1-.982.824A1.27,1.27,0,0,1,11083.059-4013.274Zm-1.367-31.9-12.253-2.224a1,1,0,0,1-.807-1.163,1,1,0,0,1,1.163-.8l12.253,2.224a1,1,0,0,1,.8,1.16,1,1,0,0,1-.982.824A1.008,1.008,0,0,1,11081.691-4045.176Zm1.019-5.616-12.253-2.223a1,1,0,0,1-.8-1.163,1,1,0,0,1,1.163-.8l12.253,2.224a1,1,0,0,1,.8,1.16,1,1,0,0,1-.981.821A.99.99,0,0,1,11082.71-4050.792Z" transform="translate(-10985 4055)" fill="#fff"/>
</svg>
