<svg xmlns="http://www.w3.org/2000/svg" width="61.364" height="61.364" viewBox="0 0 61.364 61.364">
  <path id="Nool" d="M11003.738-3996.048a30.583,30.583,0,0,1-9.753-6.573,30.592,30.592,0,0,1-6.573-9.753,30.5,30.5,0,0,1-2.412-11.943,30.494,30.494,0,0,1,2.412-11.943,30.556,30.556,0,0,1,6.573-9.753,30.636,30.636,0,0,1,9.753-6.576,30.5,30.5,0,0,1,11.942-2.412,30.492,30.492,0,0,1,11.943,2.412,30.582,30.582,0,0,1,9.753,6.576,30.532,30.532,0,0,1,6.576,9.753,30.459,30.459,0,0,1,2.411,11.943,30.468,30.468,0,0,1-2.411,11.943,30.568,30.568,0,0,1-6.576,9.753,30.529,30.529,0,0,1-9.753,6.573,30.444,30.444,0,0,1-11.943,2.412A30.453,30.453,0,0,1,11003.738-3996.048Zm.779-54.7a28.558,28.558,0,0,0-9.115,6.146,28.544,28.544,0,0,0-6.149,9.118,28.519,28.519,0,0,0-2.254,11.164,28.519,28.519,0,0,0,2.254,11.164,28.574,28.574,0,0,0,6.149,9.118,28.558,28.558,0,0,0,9.115,6.146,28.516,28.516,0,0,0,11.163,2.254,28.542,28.542,0,0,0,11.167-2.254,28.6,28.6,0,0,0,9.115-6.146,28.574,28.574,0,0,0,6.149-9.118,28.516,28.516,0,0,0,2.251-11.164,28.516,28.516,0,0,0-2.251-11.164,28.544,28.544,0,0,0-6.149-9.118,28.6,28.6,0,0,0-9.115-6.146,28.49,28.49,0,0,0-11.167-2.254A28.471,28.471,0,0,0,11004.518-4050.745Zm8.724,45.263a1,1,0,0,1,0-1.414l16.836-16.95H11000.5a1,1,0,0,1-1-1,1,1,0,0,1,1-1h29.574l-16.836-16.95a1.006,1.006,0,0,1,0-1.417,1,1,0,0,1,1.417.006l18.529,18.655a1,1,0,0,1,0,1.411l-18.529,18.652a1,1,0,0,1-.71.3A1,1,0,0,1,11013.241-4005.482Z" transform="translate(-10985 4055)"/>
</svg>
